<svg width="1204" height="288" viewBox="0 0 1204 288" fill="none" xmlns="http://www.w3.org/2000/svg">
<g clip-path="url(#clip0_1_1940)">
<rect width="1204" height="288" fill="#9E5CF2" fill-opacity="0.1"/>
<g clip-path="url(#clip1_1_1940)">
<path d="M1301.99 307.561C1278.84 293.822 1254.89 279.618 1224.82 279.618C1194.74 279.618 1170.8 293.812 1147.64 307.561L1146.87 306.253C1170.16 292.413 1194.32 278.097 1224.84 278.097C1255.36 278.097 1279.46 292.413 1302.81 306.253L1301.99 307.561Z" fill="white" fill-opacity="0.5"/>
<path d="M991.733 307.561C968.575 293.822 944.636 279.618 914.561 279.618C884.486 279.618 860.537 293.812 837.379 307.561L836.609 306.253C859.899 292.413 884.061 278.097 914.581 278.097C945.102 278.097 969.192 292.413 992.554 306.253L991.733 307.561Z" fill="white" fill-opacity="0.5"/>
<path d="M1319.66 307.581C1313.71 304.316 1307.75 300.778 1301.99 297.361C1278.84 283.602 1254.94 269.408 1224.82 269.408C1194.7 269.408 1170.8 283.602 1147.6 297.361C1141.85 300.778 1135.89 304.316 1129.93 307.581L1129.2 306.243C1135.13 302.988 1141.08 299.46 1146.83 296.053C1170.12 282.213 1194.28 267.897 1224.8 267.897C1255.32 267.897 1279.42 282.213 1302.77 296.053C1308.51 299.47 1314.46 302.988 1320.39 306.243L1319.66 307.581Z" fill="white" fill-opacity="0.5"/>
<path d="M1009.4 307.581C1003.45 304.316 997.495 300.778 991.733 297.361C968.585 283.602 944.636 269.408 914.561 269.408C884.486 269.408 860.537 283.602 837.379 297.351C831.627 300.768 825.673 304.306 819.708 307.571L818.979 306.232C824.913 302.978 830.857 299.449 836.609 296.043C859.899 282.203 884.061 267.887 914.581 267.887C945.102 267.887 969.202 282.203 992.554 296.043C998.295 299.449 1004.24 302.978 1010.17 306.232L1009.4 307.581Z" fill="white" fill-opacity="0.5"/>
<path d="M1341.15 307.621C1327.4 302.238 1314.49 294.573 1302 287.161C1278.84 273.463 1254.94 259.269 1224.82 259.269C1194.7 259.269 1170.8 273.463 1147.6 287.161C1135.11 294.573 1122.19 302.238 1108.44 307.621L1107.88 306.202C1121.56 300.838 1134.43 293.234 1146.87 285.853C1170.16 272.003 1194.32 257.698 1224.84 257.698C1255.36 257.698 1279.46 272.014 1302.81 285.853C1315.25 293.234 1328.13 300.869 1341.75 306.202L1341.15 307.621Z" fill="white" fill-opacity="0.5"/>
<path d="M1030.9 307.621C1017.14 302.238 1004.23 294.573 991.733 287.161C968.585 273.464 944.636 259.269 914.561 259.269C884.486 259.269 860.537 273.463 837.379 287.212C824.974 294.522 812.144 302.136 798.484 307.51L797.937 306.101C811.476 300.768 824.265 293.184 836.609 285.823C859.899 271.973 884.061 257.667 914.581 257.667C945.102 257.667 969.202 271.983 992.554 285.823C1004.99 293.204 1017.87 300.839 1031.49 306.172L1030.9 307.621Z" fill="white" fill-opacity="0.5"/>
<path d="M1069.69 305.117C1039.18 305.117 1015.06 290.801 991.713 276.961C968.564 263.223 944.616 249.008 914.541 249.008C884.466 249.008 860.517 263.203 837.358 276.961C824.974 284.322 812.144 291.937 798.484 297.31L797.937 295.891C811.476 290.568 824.265 282.984 836.609 275.613C859.899 261.763 884.061 247.447 914.581 247.447C945.102 247.447 969.202 261.763 992.554 275.613C1015.7 289.351 1039.64 303.556 1069.73 303.556C1099.81 303.556 1123.75 289.361 1146.91 275.613C1170.2 261.763 1194.36 247.447 1224.88 247.447V248.968C1194.8 248.968 1170.86 263.162 1147.7 276.921C1124.31 290.801 1100.19 305.117 1069.69 305.117Z" fill="white" fill-opacity="0.5"/>
<path d="M1069.69 294.917C1039.18 294.917 1015.06 280.601 991.713 266.762C968.564 253.013 944.616 238.809 914.541 238.809C884.466 238.809 860.517 253.003 837.358 266.762C824.974 274.123 812.144 281.737 798.484 287.11L797.937 285.691C811.476 280.368 824.265 272.784 836.609 265.413C859.899 251.563 884.061 237.247 914.581 237.247C945.102 237.247 969.202 251.563 992.554 265.413C1015.7 279.151 1039.64 293.356 1069.73 293.356C1099.81 293.356 1123.75 279.162 1146.91 265.413C1170.2 251.563 1194.36 237.247 1224.88 237.247V238.768C1194.8 238.768 1170.86 252.963 1147.7 266.721C1124.31 280.561 1100.19 294.917 1069.69 294.917Z" fill="white" fill-opacity="0.5"/>
<path d="M1069.69 284.718C1039.18 284.718 1015.06 270.402 991.713 256.562C968.564 242.814 944.616 228.609 914.541 228.609C884.466 228.609 860.517 242.803 837.358 256.552C824.974 263.923 812.144 271.537 798.484 276.911L797.937 275.491C811.476 270.158 824.265 262.584 836.609 255.213C859.899 241.374 884.061 227.058 914.581 227.058C945.102 227.058 969.202 241.374 992.554 255.213C1015.7 268.962 1039.64 283.166 1069.73 283.166C1099.81 283.166 1123.75 268.972 1146.91 255.213C1170.2 241.374 1194.36 227.058 1224.88 227.058V228.579C1194.8 228.579 1170.86 242.773 1147.7 256.532C1124.31 270.422 1100.19 284.718 1069.69 284.718Z" fill="white" fill-opacity="0.5"/>
<path d="M1069.69 274.477C1039.18 274.477 1015.06 260.161 991.713 246.312C968.564 232.573 944.616 218.369 914.541 218.369C884.466 218.369 860.517 232.563 837.358 246.312C824.974 253.713 812.144 261.297 798.484 266.701L797.937 265.292C811.476 259.958 824.265 252.375 836.609 245.014C859.899 231.174 884.061 216.858 914.581 216.858C945.102 216.858 969.202 231.174 992.554 245.014C1015.7 258.752 1039.64 272.967 1069.73 272.967C1099.81 272.967 1123.75 258.772 1146.91 245.014C1170.2 231.174 1194.36 216.858 1224.88 216.858V218.379C1194.8 218.379 1170.86 232.573 1147.7 246.322C1124.31 260.202 1100.19 274.477 1069.69 274.477Z" fill="white" fill-opacity="0.5"/>
<path d="M1069.69 264.338C1039.18 264.338 1015.06 250.022 991.713 236.173C968.564 222.434 944.616 208.23 914.541 208.23C884.466 208.23 860.517 222.424 837.358 236.173C824.974 243.513 812.144 251.158 798.484 256.501L797.937 255.092C811.476 249.759 824.265 242.175 836.609 234.814C859.899 220.974 884.061 206.658 914.581 206.658C945.102 206.658 969.202 220.974 992.554 234.814C1015.7 248.552 1039.64 262.767 1069.73 262.767C1099.81 262.767 1123.75 248.572 1146.91 234.814C1170.2 220.974 1194.36 206.658 1224.88 206.658V208.179C1194.8 208.179 1170.86 222.374 1147.7 236.122C1124.31 250.002 1100.19 264.338 1069.69 264.338Z" fill="white" fill-opacity="0.5"/>
<path d="M1069.69 254.108C1039.18 254.108 1015.06 239.792 991.713 225.953C968.564 212.214 944.616 198 914.541 198C884.466 198 860.517 212.194 837.358 225.953C824.974 233.313 812.144 240.928 798.484 246.301L797.937 244.892C811.476 239.559 824.265 231.975 836.609 224.614C859.899 210.765 884.061 196.448 914.581 196.448C945.102 196.448 969.202 210.765 992.554 224.614C1015.7 238.353 1039.64 252.557 1069.73 252.557C1099.81 252.557 1123.75 238.363 1146.91 224.614C1170.2 210.765 1194.36 196.448 1224.88 196.448V197.969C1194.8 197.969 1170.86 212.164 1147.7 225.922C1124.31 239.792 1100.19 254.108 1069.69 254.108Z" fill="white" fill-opacity="0.5"/>
<path d="M1069.69 243.909C1039.18 243.909 1015.06 229.593 991.713 215.753C968.564 202.015 944.616 187.8 914.541 187.8C884.466 187.8 860.517 201.994 837.358 215.753C824.974 223.114 812.144 230.728 798.484 236.102L797.937 234.682C811.476 229.359 824.265 221.775 836.609 214.404C859.899 200.555 884.061 186.239 914.581 186.239C945.102 186.239 969.202 200.555 992.554 214.404C1015.7 228.143 1039.64 242.347 1069.73 242.347C1099.81 242.347 1123.75 228.153 1146.91 214.404C1170.2 200.555 1194.36 186.239 1224.88 186.239V187.759C1194.8 187.759 1170.86 201.954 1147.7 215.712C1124.31 229.592 1100.19 243.909 1069.69 243.909Z" fill="white" fill-opacity="0.5"/>
<path d="M1069.69 233.709C1039.18 233.709 1015.06 219.393 991.713 205.553C968.564 191.805 944.616 177.6 914.541 177.6C884.466 177.6 860.517 191.795 837.358 205.553C824.974 212.914 812.144 220.528 798.484 225.902L797.937 224.482C811.476 219.149 824.265 211.576 836.609 204.205C859.899 190.365 884.061 176.049 914.581 176.049C945.102 176.049 969.202 190.365 992.554 204.205C1015.7 217.953 1039.64 232.158 1069.73 232.158C1099.81 232.158 1123.75 217.963 1146.91 204.205C1170.2 190.365 1194.36 176.049 1224.88 176.049V177.57C1194.8 177.57 1170.86 191.764 1147.7 205.523C1124.31 219.393 1100.19 233.709 1069.69 233.709Z" fill="white" fill-opacity="0.5"/>
<path d="M1069.69 223.509C1039.18 223.509 1015.06 209.193 991.713 195.343C968.564 181.605 944.616 167.401 914.541 167.401C884.466 167.401 860.537 181.605 837.379 195.394C824.974 202.714 812.144 210.329 798.484 215.672L797.937 214.252C811.476 208.919 824.265 201.335 836.609 193.975C859.899 180.135 884.061 165.819 914.581 165.819C945.102 165.819 969.202 180.135 992.554 193.975C1015.7 207.723 1039.64 221.928 1069.73 221.928C1099.81 221.928 1123.75 207.733 1146.91 193.975C1170.2 180.135 1194.36 165.819 1224.88 165.819V167.34C1194.8 167.34 1170.86 181.534 1147.7 195.283C1124.31 209.193 1100.19 223.509 1069.69 223.509Z" fill="white" fill-opacity="0.5"/>
<path d="M1069.69 213.309C1039.18 213.309 1015.06 198.993 991.713 185.144C968.564 171.405 944.616 157.201 914.541 157.201C884.466 157.201 860.517 171.395 837.358 185.144C824.974 192.504 812.144 200.119 798.484 205.533L797.937 204.124C811.476 198.791 824.265 191.207 836.609 183.846C859.899 170.006 884.061 155.69 914.581 155.69C945.102 155.69 969.202 170.006 992.554 183.846C1015.7 197.584 1039.64 211.799 1069.73 211.799C1099.81 211.799 1123.75 197.604 1146.91 183.846C1170.2 170.006 1194.36 155.69 1224.88 155.69V157.211C1194.8 157.211 1170.86 171.405 1147.7 185.154C1124.31 198.993 1100.19 213.309 1069.69 213.309Z" fill="white" fill-opacity="0.5"/>
<path d="M1069.69 203.11C1039.18 203.11 1015.06 188.794 991.713 174.944C968.564 161.206 944.616 147.001 914.541 147.001C884.466 147.001 860.517 161.196 837.358 174.944C824.974 182.305 812.144 189.919 798.484 195.293L797.937 193.883C811.476 188.55 824.265 180.966 836.609 173.606C859.899 159.756 884.061 145.45 914.581 145.45C945.102 145.45 969.202 159.766 992.554 173.606C1015.7 187.344 1039.64 201.558 1069.73 201.558C1099.81 201.558 1123.75 187.364 1146.91 173.606C1170.2 159.766 1194.36 145.45 1224.88 145.45V146.971C1194.8 146.971 1170.86 161.165 1147.7 174.913C1124.31 188.794 1100.19 203.11 1069.69 203.11Z" fill="white" fill-opacity="0.5"/>
<path d="M1069.69 192.9C1039.18 192.9 1015.06 178.584 991.713 164.744C968.564 151.006 944.616 136.791 914.541 136.791C884.466 136.791 860.517 150.986 837.358 164.744C824.974 172.075 812.144 179.719 798.484 185.093L797.937 183.673C811.476 178.351 824.265 170.767 836.609 163.396C859.899 149.546 884.061 135.23 914.581 135.23C945.102 135.23 969.202 149.546 992.554 163.396C1015.66 177.144 1039.6 191.338 1069.69 191.338C1099.77 191.338 1123.71 177.144 1146.87 163.396C1170.16 149.546 1194.32 135.23 1224.84 135.23V136.751C1194.75 136.751 1170.82 150.945 1147.66 164.704C1124.31 178.584 1100.19 192.9 1069.69 192.9Z" fill="white" fill-opacity="0.5"/>
<path d="M1069.69 182.7C1039.18 182.7 1015.06 168.384 991.713 154.544C968.564 140.806 944.616 126.592 914.541 126.592C884.466 126.592 860.517 140.786 837.358 154.544C824.974 161.936 812.144 169.52 798.484 174.893L797.937 173.474C811.476 168.151 824.265 160.567 836.609 153.196C859.899 139.346 884.061 125.03 914.581 125.03C945.102 125.03 969.202 139.346 992.554 153.196C1015.66 167.005 1039.6 181.2 1069.69 181.2C1099.77 181.2 1123.71 167.005 1146.87 153.257C1170.16 139.407 1194.32 125.091 1224.84 125.091V126.612C1194.75 126.612 1170.82 140.806 1147.66 154.565C1124.31 168.384 1100.19 182.7 1069.69 182.7Z" fill="white" fill-opacity="0.5"/>
<path d="M1069.69 172.5C1039.18 172.5 1015.06 158.184 991.713 144.335C968.564 130.596 944.616 116.392 914.541 116.392C884.466 116.392 860.517 130.586 837.358 144.335C824.974 151.706 812.144 159.32 798.484 164.693L797.937 163.274C811.476 157.941 824.265 150.367 836.609 142.996C859.899 129.157 884.061 114.841 914.581 114.841C945.102 114.841 969.202 129.157 992.554 142.996C1015.7 156.745 1039.64 170.949 1069.73 170.949C1099.81 170.949 1123.75 156.755 1146.91 142.996C1170.2 129.157 1194.36 114.841 1224.88 114.841V116.361C1194.8 116.361 1170.86 130.556 1147.7 144.304C1124.31 158.184 1100.19 172.5 1069.69 172.5Z" fill="white" fill-opacity="0.5"/>
<path d="M1069.69 162.301C1039.18 162.301 1015.06 147.985 991.713 134.135C968.585 120.366 944.636 106.172 914.561 106.172C884.486 106.172 860.537 120.366 837.379 134.115C824.974 141.506 812.144 149.11 798.484 154.494L797.937 153.074C811.476 147.741 824.265 140.157 836.609 132.796C859.899 118.957 884.061 104.641 914.581 104.641C945.102 104.641 969.202 118.957 992.554 132.796C1015.7 146.535 1039.64 160.749 1069.73 160.749C1099.81 160.749 1123.75 146.555 1146.91 132.796C1170.2 118.957 1194.36 104.641 1224.88 104.641V106.172C1194.8 106.172 1170.86 120.366 1147.7 134.115C1124.31 147.985 1100.19 162.301 1069.69 162.301Z" fill="white" fill-opacity="0.5"/>
<path d="M1069.69 152.101C1039.18 152.101 1015.06 137.785 991.713 123.935C968.585 110.227 944.636 96.0329 914.561 96.0329C884.486 96.0329 860.537 110.227 837.379 123.976C824.974 131.296 812.144 138.91 798.484 144.284L797.937 142.875C811.476 137.542 824.265 129.958 836.609 122.597C859.899 108.757 884.061 94.4411 914.581 94.4411C945.102 94.4411 969.202 108.757 992.554 122.597C1015.7 136.335 1039.64 150.55 1069.73 150.55C1099.81 150.55 1123.75 136.355 1146.91 122.597C1170.2 108.757 1194.36 94.4411 1224.88 94.4411V96.0329C1194.8 96.0329 1170.86 110.227 1147.7 123.976C1124.31 137.785 1100.19 152.101 1069.69 152.101Z" fill="white" fill-opacity="0.5"/>
<path d="M1069.69 141.891C1039.18 141.891 1015.06 127.585 991.713 113.735C968.564 99.9972 944.616 85.7825 914.541 85.7825C884.466 85.7825 860.517 99.977 837.358 113.735C824.974 121.096 812.144 128.711 798.484 134.084L797.937 132.675C811.476 127.342 824.265 119.758 836.609 112.397C859.899 98.5474 884.061 84.2313 914.581 84.2313C945.102 84.2313 969.202 98.5474 992.554 112.397C1015.7 126.135 1039.64 140.34 1069.73 140.34C1099.81 140.34 1123.75 126.145 1146.91 112.397C1170.2 98.5474 1194.36 84.2313 1224.88 84.2313V85.7521C1194.8 85.7521 1170.86 99.9465 1147.7 113.705C1124.31 127.585 1100.19 141.891 1069.69 141.891Z" fill="white" fill-opacity="0.5"/>
<path d="M1069.69 131.691C1039.18 131.691 1015.06 117.375 991.713 103.536C968.564 89.7975 944.616 75.5828 914.541 75.5828C884.466 75.5828 860.517 89.7772 837.358 103.536C824.974 110.897 812.144 118.511 798.484 123.884L797.937 122.465C811.476 117.142 824.265 109.558 836.609 102.187C859.899 88.3375 884.061 74.0214 914.581 74.0214C945.102 74.0214 969.202 88.3375 992.554 102.187C1015.7 115.925 1039.64 130.13 1069.73 130.13C1099.81 130.13 1123.75 115.936 1146.91 102.187C1170.2 88.3375 1194.36 74.0214 1224.88 74.0214V75.5422C1194.8 75.5422 1170.86 89.7366 1147.7 103.495C1124.31 117.375 1100.19 131.691 1069.69 131.691Z" fill="white" fill-opacity="0.5"/>
<path d="M1069.69 121.492C1039.18 121.492 1015.06 107.176 991.713 93.336C968.564 79.5876 944.616 65.383 914.541 65.383C884.466 65.383 860.517 79.5775 837.358 93.336C824.974 100.697 812.144 108.311 798.484 113.685L797.937 112.255C811.476 106.932 824.265 99.3483 836.609 91.9773C859.899 78.1378 884.061 63.8217 914.581 63.8217C945.102 63.8217 969.202 78.1378 992.554 91.9875C1015.7 105.726 1039.64 119.93 1069.73 119.93C1099.81 119.93 1123.75 105.736 1146.91 91.9875C1170.2 78.1378 1194.36 63.8217 1224.88 63.8217V65.3425C1194.8 65.3425 1170.86 79.5369 1147.7 93.2954C1124.31 107.186 1100.19 121.492 1069.69 121.492Z" fill="white" fill-opacity="0.5"/>
<path d="M1069.69 111.292C1039.18 111.292 1015.06 96.9758 991.713 83.1261C968.564 69.3879 944.616 55.1834 914.541 55.1834C884.466 55.1834 860.517 69.3778 837.358 83.1261C824.974 90.4971 812.144 98.1114 798.484 103.485L797.937 102.116C811.476 96.7832 824.265 89.2095 836.609 81.8385C859.899 67.9989 884.061 53.6828 914.581 53.6828C945.102 53.6828 969.202 67.9989 992.554 81.8385C1015.7 95.5868 1039.64 109.791 1069.73 109.791C1099.81 109.791 1123.75 95.597 1146.91 81.8385C1170.2 67.9989 1194.36 53.6828 1224.88 53.6828V55.2036C1194.8 55.2036 1170.86 69.3981 1147.7 83.1464C1124.31 96.9759 1100.19 111.292 1069.69 111.292Z" fill="white" fill-opacity="0.5"/>
<path d="M1069.69 101.102C1039.18 101.102 1015.06 86.7863 991.713 72.9365C968.564 59.1983 944.616 44.9938 914.541 44.9938C884.466 44.9938 860.517 59.1882 837.358 72.9365C824.974 80.2872 812.144 87.9218 798.484 93.2752L797.937 91.8658C811.476 86.5328 824.265 78.9489 836.609 71.5881C859.899 57.7485 884.061 43.4324 914.581 43.4324C945.102 43.4324 969.202 57.7485 992.554 71.5881C1015.7 85.3263 1039.64 99.541 1069.73 99.541C1099.81 99.541 1123.75 85.3465 1146.91 71.5881C1170.2 57.7485 1194.36 43.4324 1224.88 43.4324V44.9532C1194.8 44.9532 1170.86 59.1477 1147.7 72.896C1124.31 86.7761 1100.19 101.102 1069.69 101.102Z" fill="white" fill-opacity="0.5"/>
<path d="M1069.69 90.8925C1039.18 90.8925 1015.06 76.5764 991.713 62.7267C968.564 48.9885 944.616 34.7839 914.541 34.7839C884.466 34.7839 860.517 48.9784 837.358 62.7267C824.974 70.0875 812.144 77.7018 798.484 83.0754L797.937 81.6661C811.476 76.3331 824.265 68.7492 836.609 61.3884C859.899 47.5488 884.061 33.2327 914.581 33.2327C945.102 33.2327 969.202 47.5488 992.554 61.3884C1015.7 75.1266 1039.64 89.3413 1069.73 89.3413C1099.81 89.3413 1123.75 75.1468 1146.91 61.3884C1170.2 47.5488 1194.36 33.2327 1224.88 33.2327V34.7535C1194.8 34.7535 1170.86 48.9479 1147.7 62.6963C1124.31 76.5764 1100.19 90.8925 1069.69 90.8925Z" fill="white" fill-opacity="0.5"/>
<path d="M1069.69 80.6826C1039.18 80.6826 1015.06 66.3665 991.713 52.5269C968.564 38.7887 944.616 24.574 914.541 24.574C884.466 24.574 860.517 38.7685 837.358 52.5269C824.974 59.8878 812.144 67.5021 798.484 72.8757L797.937 71.4664C811.476 66.1333 824.265 58.5494 836.609 51.1886C859.899 37.3389 884.061 23.0228 914.581 23.0228C945.102 23.0228 969.202 37.3389 992.554 51.1886C1015.7 64.9268 1039.64 79.1314 1069.73 79.1314C1099.81 79.1314 1123.75 64.9369 1146.91 51.1886C1170.2 37.3389 1194.36 23.0228 1224.88 23.0228V24.5436C1194.8 24.5436 1170.86 38.738 1147.7 52.4965C1124.31 66.3665 1100.19 80.6826 1069.69 80.6826Z" fill="white" fill-opacity="0.5"/>
<path d="M1069.69 70.4829C1039.18 70.4829 1015.06 56.1668 991.713 42.3272C968.564 28.589 944.616 14.3743 914.541 14.3743C884.466 14.3743 860.537 28.589 837.379 42.2968C824.974 49.6881 812.144 57.3024 798.484 62.676L797.937 61.2565C811.476 55.9336 824.265 48.3497 836.609 40.9788C859.899 27.129 884.061 12.8129 914.581 12.8129C945.102 12.8129 969.202 27.129 992.554 40.9788C1015.7 54.717 1039.64 68.9215 1069.73 68.9215C1099.81 68.9215 1123.75 54.7271 1146.91 40.9788C1170.2 27.129 1194.36 12.8129 1224.88 12.8129V14.3338C1194.8 14.3338 1170.86 28.5282 1147.7 42.2867C1124.31 56.1668 1100.19 70.4829 1069.69 70.4829Z" fill="white" fill-opacity="0.5"/>
<path d="M1069.69 60.2832C1039.18 60.2832 1015.06 45.9671 991.713 32.1275C968.585 18.3792 944.636 4.17458 914.561 4.17458C884.486 4.17458 860.537 18.3792 837.379 32.1579C824.974 39.4883 812.144 47.1026 798.484 52.4357L797.937 51.0162C811.476 45.6933 824.265 38.1094 836.609 30.7385C859.94 16.9496 884.061 2.65375 914.561 2.65375C945.061 2.65375 969.182 16.9699 992.533 30.8196C1015.68 44.5578 1039.62 58.7624 1069.71 58.7624C1099.79 58.7624 1123.73 44.5679 1146.89 30.8196C1170.18 16.9699 1194.34 2.65375 1224.86 2.65375V4.17458C1194.77 4.17458 1170.84 18.369 1147.68 32.1275C1124.31 45.9671 1100.19 60.2832 1069.69 60.2832Z" fill="white" fill-opacity="0.5"/>
<path d="M1069.69 50.0835C1039.18 50.0835 1015.06 35.7674 991.713 21.9177C968.585 8.17946 944.636 -6.02512 914.561 -6.02512C884.486 -6.02512 860.537 8.16933 837.379 21.9177C824.974 29.2886 812.144 36.9029 798.484 42.2968L797.937 40.8774C811.476 35.5443 824.265 27.9706 836.609 20.5996C859.899 6.76002 884.061 -7.55609 914.581 -7.55609C945.102 -7.55609 969.202 6.76002 992.554 20.5996C1015.7 34.3479 1039.64 48.5525 1069.73 48.5525C1099.81 48.5525 1123.75 34.3581 1146.91 20.5996C1170.2 6.76002 1194.36 -7.55609 1224.88 -7.55609V-6.03526C1194.8 -6.03526 1170.86 8.15919 1147.7 21.9075C1124.31 35.7674 1100.19 50.0835 1069.69 50.0835Z" fill="white" fill-opacity="0.5"/>
<path d="M1069.69 39.8837C1039.18 39.8837 1015.06 25.5676 991.713 11.7179C968.585 -2.02029 944.636 -16.2249 914.561 -16.2249C884.486 -16.2249 860.537 -2.02029 837.379 11.7179C824.974 19.0787 812.144 26.693 798.484 32.0667L797.937 30.6573C811.476 25.3243 824.265 17.7404 836.609 10.3796C859.899 -3.46001 884.061 -17.7761 914.581 -17.7761C945.102 -17.7761 969.202 -3.46001 992.554 10.3796C1015.7 24.1178 1039.64 38.3325 1069.73 38.3325C1099.81 38.3325 1123.75 24.138 1146.91 10.3796C1170.2 -3.46001 1194.36 -17.7761 1224.88 -17.7761V-16.2553C1194.8 -16.2553 1170.86 -2.06085 1147.7 11.6875C1124.31 25.5676 1100.19 39.8837 1069.69 39.8837Z" fill="white" fill-opacity="0.5"/>
<path d="M1069.69 29.684C1039.18 29.684 1015.06 15.3578 991.713 1.5182C979.298 -5.86292 966.438 -13.4671 952.798 -18.8306L953.345 -20.25C967.106 -14.8662 980.017 -7.20125 992.503 0.210279C1015.66 13.9079 1039.6 28.1632 1069.69 28.1632C1099.77 28.1632 1123.71 13.9688 1146.87 0.210279C1159.35 -7.20125 1172.26 -14.8662 1186.08 -20.25L1186.63 -18.8306C1172.91 -13.4671 1160.07 -5.86292 1147.6 1.5182C1124.31 15.3679 1100.19 29.684 1069.69 29.684Z" fill="white" fill-opacity="0.5"/>
<path d="M798.484 21.8669L797.937 20.4576C811.476 15.1246 824.265 7.5407 836.609 0.179865C848.953 -7.18097 862.036 -14.8662 875.767 -20.25L876.324 -18.8306C862.674 -13.4671 849.814 -5.86292 837.379 1.5182C824.944 8.89931 812.144 16.4933 798.484 21.8669Z" fill="white" fill-opacity="0.5"/>
<path d="M1069.69 19.4741C1039.18 19.4741 1015.06 5.15802 991.713 -8.68156C985.971 -12.0984 980.027 -15.6166 974.083 -18.8204L974.812 -20.1588C980.777 -16.8941 986.731 -13.3556 992.493 -9.93878C1015.66 3.769 1039.6 17.9634 1069.69 17.9634C1099.77 17.9634 1123.71 3.769 1146.87 -9.98947C1152.62 -13.4063 1158.57 -16.9448 1164.54 -20.2095L1165.27 -18.8711C1159.32 -15.6166 1153.39 -12.0882 1147.64 -8.73225C1124.31 5.15803 1100.19 19.4741 1069.69 19.4741Z" fill="white" fill-opacity="0.5"/>
<path d="M798.484 11.6672L797.937 10.2478C811.476 4.92486 824.265 -2.65903 836.599 -10.03C842.361 -13.4468 848.315 -16.9853 854.279 -20.25L855.009 -18.9117C849.064 -15.6571 843.12 -12.1287 837.379 -8.77278C824.974 -1.30042 812.144 6.29361 798.484 11.6672Z" fill="white" fill-opacity="0.5"/>
<path d="M1069.69 9.27446C1039.18 9.27446 1015.06 -5.04165 991.713 -18.8812L992.493 -20.1891C1015.64 -6.45095 1039.58 7.75363 1069.67 7.75363C1099.75 7.75363 1123.69 -6.44081 1146.84 -20.1891L1147.62 -18.8812C1124.31 -5.04165 1100.19 9.27446 1069.69 9.27446Z" fill="white" fill-opacity="0.5"/>
<path d="M798.484 1.46748L797.937 0.0480404C811.466 -5.27488 824.265 -12.8486 836.589 -20.2297L837.379 -18.932C824.964 -11.5103 812.134 -3.90613 798.484 1.46748Z" fill="white" fill-opacity="0.5"/>
</g>
<g clip-path="url(#clip2_1_1940)">
<path d="M498.992 307.561C475.843 293.822 451.895 279.618 421.82 279.618C391.745 279.618 367.796 293.812 344.637 307.561L343.868 306.253C367.158 292.413 391.319 278.097 421.84 278.097C452.36 278.097 476.461 292.413 499.812 306.253L498.992 307.561Z" fill="white" fill-opacity="0.5"/>
<path d="M188.733 307.561C165.575 293.822 141.636 279.618 111.561 279.618C81.4861 279.618 57.5375 293.812 34.3787 307.561L33.6091 306.253C56.8995 292.413 81.0608 278.097 111.581 278.097C142.102 278.097 166.192 292.413 189.554 306.253L188.733 307.561Z" fill="white" fill-opacity="0.5"/>
<path d="M516.662 307.581C510.708 304.316 504.754 300.778 498.992 297.361C475.843 283.602 451.935 269.408 421.82 269.408C391.704 269.408 367.796 283.602 344.597 297.361C338.845 300.778 332.891 304.316 326.926 307.581L326.197 306.243C332.131 302.988 338.075 299.46 343.827 296.053C367.117 282.213 391.279 267.897 421.799 267.897C452.32 267.897 476.42 282.213 499.772 296.053C505.513 299.47 511.457 302.988 517.391 306.243L516.662 307.581Z" fill="white" fill-opacity="0.5"/>
<path d="M206.404 307.581C200.449 304.316 194.495 300.778 188.733 297.361C165.585 283.602 141.636 269.408 111.561 269.408C81.486 269.408 57.5374 283.602 34.3787 297.351C28.627 300.768 22.6727 304.306 16.7083 307.571L15.9792 306.232C21.9132 302.978 27.8574 299.449 33.6091 296.043C56.8995 282.203 81.0607 267.887 111.581 267.887C142.102 267.887 166.202 282.203 189.554 296.043C195.295 299.449 201.239 302.978 207.173 306.232L206.404 307.581Z" fill="white" fill-opacity="0.5"/>
<path d="M538.15 307.621C524.399 302.238 511.488 294.573 499.002 287.161C475.843 273.463 451.935 259.269 421.82 259.269C391.704 259.269 367.796 273.463 344.597 287.161C332.111 294.573 319.19 302.238 305.439 307.621L304.882 306.202C318.562 300.838 331.433 293.234 343.868 285.853C367.158 272.003 391.319 257.698 421.84 257.698C452.36 257.698 476.461 272.014 499.812 285.853C512.247 293.234 525.128 300.869 538.748 306.202L538.15 307.621Z" fill="white" fill-opacity="0.5"/>
<path d="M227.902 307.621C214.14 302.238 201.229 294.573 188.733 287.161C165.585 273.464 141.636 259.269 111.561 259.269C81.4861 259.269 57.5374 273.463 34.3787 287.212C21.974 294.522 9.14404 302.136 -4.51629 307.51L-5.06311 306.101C8.4757 300.768 21.2652 293.184 33.6091 285.823C56.8995 271.973 81.0608 257.667 111.581 257.667C142.102 257.667 166.202 271.983 189.554 285.823C201.989 293.204 214.869 300.839 228.489 306.172L227.902 307.621Z" fill="white" fill-opacity="0.5"/>
<path d="M266.685 305.117C236.185 305.117 212.064 290.801 188.713 276.961C165.564 263.223 141.616 249.008 111.541 249.008C81.4658 249.008 57.5172 263.203 34.3584 276.961C21.974 284.322 9.14404 291.937 -4.51629 297.31L-5.06311 295.891C8.4757 290.568 21.2652 282.984 33.6091 275.613C56.8995 261.763 81.0608 247.447 111.581 247.447C142.102 247.447 166.202 261.763 189.554 275.613C212.702 289.351 236.641 303.556 266.726 303.556C296.811 303.556 320.749 289.361 343.908 275.613C367.199 261.763 391.36 247.447 421.88 247.447V248.968C391.795 248.968 367.857 263.162 344.698 276.921C321.306 290.801 297.186 305.117 266.685 305.117Z" fill="white" fill-opacity="0.5"/>
<path d="M266.685 294.917C236.185 294.917 212.064 280.601 188.713 266.762C165.564 253.013 141.616 238.809 111.541 238.809C81.4658 238.809 57.5172 253.003 34.3584 266.762C21.974 274.123 9.14404 281.737 -4.51629 287.11L-5.06311 285.691C8.4757 280.368 21.2652 272.784 33.6091 265.413C56.8995 251.563 81.0608 237.247 111.581 237.247C142.102 237.247 166.202 251.563 189.554 265.413C212.702 279.151 236.641 293.356 266.726 293.356C296.811 293.356 320.749 279.162 343.908 265.413C367.199 251.563 391.36 237.247 421.88 237.247V238.768C391.795 238.768 367.857 252.963 344.698 266.721C321.306 280.561 297.186 294.917 266.685 294.917Z" fill="white" fill-opacity="0.5"/>
<path d="M266.685 284.718C236.185 284.718 212.064 270.402 188.713 256.562C165.564 242.814 141.616 228.609 111.541 228.609C81.4658 228.609 57.5172 242.803 34.3584 256.552C21.974 263.923 9.14404 271.537 -4.51629 276.911L-5.06311 275.491C8.4757 270.158 21.2652 262.584 33.6091 255.213C56.8995 241.374 81.0608 227.058 111.581 227.058C142.102 227.058 166.202 241.374 189.554 255.213C212.702 268.962 236.641 283.166 266.726 283.166C296.811 283.166 320.749 268.972 343.908 255.213C367.199 241.374 391.36 227.058 421.88 227.058V228.579C391.795 228.579 367.857 242.773 344.698 256.532C321.306 270.422 297.186 284.718 266.685 284.718Z" fill="white" fill-opacity="0.5"/>
<path d="M266.685 274.477C236.185 274.477 212.064 260.161 188.713 246.312C165.564 232.573 141.616 218.369 111.541 218.369C81.4658 218.369 57.5172 232.563 34.3584 246.312C21.974 253.713 9.14404 261.297 -4.51629 266.701L-5.06311 265.292C8.4757 259.958 21.2652 252.375 33.6091 245.014C56.8995 231.174 81.0608 216.858 111.581 216.858C142.102 216.858 166.202 231.174 189.554 245.014C212.702 258.752 236.641 272.967 266.726 272.967C296.811 272.967 320.749 258.772 343.908 245.014C367.199 231.174 391.36 216.858 421.88 216.858V218.379C391.795 218.379 367.857 232.573 344.698 246.322C321.306 260.202 297.186 274.477 266.685 274.477Z" fill="white" fill-opacity="0.5"/>
<path d="M266.685 264.338C236.185 264.338 212.064 250.022 188.713 236.173C165.564 222.434 141.616 208.23 111.541 208.23C81.4658 208.23 57.5172 222.424 34.3584 236.173C21.974 243.513 9.14404 251.158 -4.51629 256.501L-5.06311 255.092C8.4757 249.759 21.2652 242.175 33.6091 234.814C56.8995 220.974 81.0608 206.658 111.581 206.658C142.102 206.658 166.202 220.974 189.554 234.814C212.702 248.552 236.641 262.767 266.726 262.767C296.811 262.767 320.749 248.572 343.908 234.814C367.199 220.974 391.36 206.658 421.88 206.658V208.179C391.795 208.179 367.857 222.374 344.698 236.122C321.306 250.002 297.186 264.338 266.685 264.338Z" fill="white" fill-opacity="0.5"/>
<path d="M266.685 254.108C236.185 254.108 212.064 239.792 188.713 225.953C165.564 212.214 141.616 198 111.541 198C81.4658 198 57.5172 212.194 34.3584 225.953C21.974 233.313 9.14404 240.928 -4.51629 246.301L-5.06311 244.892C8.4757 239.559 21.2652 231.975 33.6091 224.614C56.8995 210.765 81.0608 196.448 111.581 196.448C142.102 196.448 166.202 210.765 189.554 224.614C212.702 238.353 236.641 252.557 266.726 252.557C296.811 252.557 320.749 238.363 343.908 224.614C367.199 210.765 391.36 196.448 421.88 196.448V197.969C391.795 197.969 367.857 212.164 344.698 225.922C321.306 239.792 297.186 254.108 266.685 254.108Z" fill="white" fill-opacity="0.5"/>
<path d="M266.685 243.909C236.185 243.909 212.064 229.593 188.713 215.753C165.564 202.015 141.616 187.8 111.541 187.8C81.4658 187.8 57.5172 201.994 34.3584 215.753C21.974 223.114 9.14404 230.728 -4.51629 236.102L-5.06311 234.682C8.4757 229.359 21.2652 221.775 33.6091 214.404C56.8995 200.555 81.0608 186.239 111.581 186.239C142.102 186.239 166.202 200.555 189.554 214.404C212.702 228.143 236.641 242.347 266.726 242.347C296.811 242.347 320.749 228.153 343.908 214.404C367.199 200.555 391.36 186.239 421.88 186.239V187.759C391.795 187.759 367.857 201.954 344.698 215.712C321.306 229.592 297.186 243.909 266.685 243.909Z" fill="white" fill-opacity="0.5"/>
<path d="M266.685 233.709C236.185 233.709 212.064 219.393 188.713 205.553C165.564 191.805 141.616 177.6 111.541 177.6C81.4658 177.6 57.5172 191.795 34.3584 205.553C21.974 212.914 9.14404 220.528 -4.51629 225.902L-5.06311 224.482C8.4757 219.149 21.2652 211.576 33.6091 204.205C56.8995 190.365 81.0608 176.049 111.581 176.049C142.102 176.049 166.202 190.365 189.554 204.205C212.702 217.953 236.641 232.158 266.726 232.158C296.811 232.158 320.749 217.963 343.908 204.205C367.199 190.365 391.36 176.049 421.88 176.049V177.57C391.795 177.57 367.857 191.764 344.698 205.523C321.306 219.393 297.186 233.709 266.685 233.709Z" fill="white" fill-opacity="0.5"/>
<path d="M266.685 223.509C236.185 223.509 212.064 209.193 188.713 195.343C165.564 181.605 141.616 167.401 111.541 167.401C81.4658 167.401 57.5374 181.605 34.3787 195.394C21.974 202.714 9.14404 210.329 -4.51629 215.672L-5.06311 214.252C8.4757 208.919 21.2652 201.335 33.6091 193.975C56.8995 180.135 81.0608 165.819 111.581 165.819C142.102 165.819 166.202 180.135 189.554 193.975C212.702 207.723 236.641 221.928 266.726 221.928C296.811 221.928 320.749 207.733 343.908 193.975C367.199 180.135 391.36 165.819 421.88 165.819V167.34C391.795 167.34 367.857 181.534 344.698 195.283C321.306 209.193 297.186 223.509 266.685 223.509Z" fill="white" fill-opacity="0.5"/>
<path d="M266.685 213.309C236.185 213.309 212.064 198.993 188.713 185.144C165.564 171.405 141.616 157.201 111.541 157.201C81.4658 157.201 57.5172 171.395 34.3584 185.144C21.974 192.504 9.14404 200.119 -4.51629 205.533L-5.06311 204.124C8.4757 198.791 21.2652 191.207 33.6091 183.846C56.8995 170.006 81.0608 155.69 111.581 155.69C142.102 155.69 166.202 170.006 189.554 183.846C212.702 197.584 236.641 211.799 266.726 211.799C296.811 211.799 320.749 197.604 343.908 183.846C367.199 170.006 391.36 155.69 421.88 155.69V157.211C391.795 157.211 367.857 171.405 344.698 185.154C321.306 198.993 297.186 213.309 266.685 213.309Z" fill="white" fill-opacity="0.5"/>
<path d="M266.685 203.11C236.185 203.11 212.064 188.794 188.713 174.944C165.564 161.206 141.616 147.001 111.541 147.001C81.4658 147.001 57.5172 161.196 34.3584 174.944C21.974 182.305 9.14404 189.919 -4.51629 195.293L-5.06311 193.883C8.4757 188.55 21.2652 180.966 33.6091 173.606C56.8995 159.756 81.0608 145.45 111.581 145.45C142.102 145.45 166.202 159.766 189.554 173.606C212.702 187.344 236.641 201.558 266.726 201.558C296.811 201.558 320.749 187.364 343.908 173.606C367.199 159.766 391.36 145.45 421.88 145.45V146.971C391.795 146.971 367.857 161.165 344.698 174.913C321.306 188.794 297.186 203.11 266.685 203.11Z" fill="white" fill-opacity="0.5"/>
<path d="M266.685 192.9C236.185 192.9 212.064 178.584 188.713 164.744C165.564 151.006 141.616 136.791 111.541 136.791C81.4658 136.791 57.5172 150.986 34.3584 164.744C21.974 172.075 9.14404 179.719 -4.51629 185.093L-5.06311 183.673C8.4757 178.351 21.2652 170.767 33.6091 163.396C56.8995 149.546 81.0608 135.23 111.581 135.23C142.102 135.23 166.202 149.546 189.554 163.396C212.662 177.144 236.6 191.338 266.685 191.338C296.77 191.338 320.709 177.144 343.868 163.396C367.158 149.546 391.319 135.23 421.84 135.23V136.751C391.755 136.751 367.816 150.945 344.658 164.704C321.306 178.584 297.186 192.9 266.685 192.9Z" fill="white" fill-opacity="0.5"/>
<path d="M266.685 182.7C236.185 182.7 212.064 168.384 188.713 154.544C165.564 140.806 141.616 126.592 111.541 126.592C81.4658 126.592 57.5172 140.786 34.3584 154.544C21.974 161.936 9.14404 169.52 -4.51629 174.893L-5.06311 173.474C8.4757 168.151 21.2652 160.567 33.6091 153.196C56.8995 139.346 81.0608 125.03 111.581 125.03C142.102 125.03 166.202 139.346 189.554 153.196C212.662 167.005 236.6 181.2 266.685 181.2C296.77 181.2 320.709 167.005 343.868 153.257C367.158 139.407 391.319 125.091 421.84 125.091V126.612C391.755 126.612 367.816 140.806 344.658 154.565C321.306 168.384 297.186 182.7 266.685 182.7Z" fill="white" fill-opacity="0.5"/>
<path d="M266.685 172.5C236.185 172.5 212.064 158.184 188.713 144.335C165.564 130.596 141.616 116.392 111.541 116.392C81.4658 116.392 57.5172 130.586 34.3584 144.335C21.974 151.706 9.14404 159.32 -4.51629 164.693L-5.06311 163.274C8.4757 157.941 21.2652 150.367 33.6091 142.996C56.8995 129.157 81.0608 114.841 111.581 114.841C142.102 114.841 166.202 129.157 189.554 142.996C212.702 156.745 236.641 170.949 266.726 170.949C296.811 170.949 320.749 156.755 343.908 142.996C367.199 129.157 391.36 114.841 421.88 114.841V116.361C391.795 116.361 367.857 130.556 344.698 144.304C321.306 158.184 297.186 172.5 266.685 172.5Z" fill="white" fill-opacity="0.5"/>
<path d="M266.685 162.301C236.185 162.301 212.064 147.985 188.713 134.135C165.585 120.366 141.636 106.172 111.561 106.172C81.4861 106.172 57.5374 120.366 34.3787 134.115C21.974 141.506 9.14404 149.11 -4.51629 154.494L-5.06311 153.074C8.4757 147.741 21.2652 140.157 33.6091 132.796C56.8995 118.957 81.0608 104.641 111.581 104.641C142.102 104.641 166.202 118.957 189.554 132.796C212.702 146.535 236.641 160.749 266.726 160.749C296.811 160.749 320.749 146.555 343.908 132.796C367.199 118.957 391.36 104.641 421.88 104.641V106.172C391.795 106.172 367.857 120.366 344.698 134.115C321.306 147.985 297.186 162.301 266.685 162.301Z" fill="white" fill-opacity="0.5"/>
<path d="M266.685 152.101C236.185 152.101 212.064 137.785 188.713 123.935C165.585 110.227 141.636 96.0329 111.561 96.0329C81.4861 96.0329 57.5374 110.227 34.3787 123.976C21.974 131.296 9.14404 138.91 -4.51629 144.284L-5.06311 142.875C8.4757 137.542 21.2652 129.958 33.6091 122.597C56.8995 108.757 81.0608 94.4411 111.581 94.4411C142.102 94.4411 166.202 108.757 189.554 122.597C212.702 136.335 236.641 150.55 266.726 150.55C296.811 150.55 320.749 136.355 343.908 122.597C367.199 108.757 391.36 94.4411 421.88 94.4411V96.0329C391.795 96.0329 367.857 110.227 344.698 123.976C321.306 137.785 297.186 152.101 266.685 152.101Z" fill="white" fill-opacity="0.5"/>
<path d="M266.685 141.891C236.185 141.891 212.064 127.585 188.713 113.735C165.564 99.9972 141.616 85.7825 111.541 85.7825C81.4658 85.7825 57.5172 99.977 34.3584 113.735C21.974 121.096 9.14404 128.711 -4.51629 134.084L-5.06311 132.675C8.4757 127.342 21.2652 119.758 33.6091 112.397C56.8995 98.5474 81.0608 84.2313 111.581 84.2313C142.102 84.2313 166.202 98.5474 189.554 112.397C212.702 126.135 236.641 140.34 266.726 140.34C296.811 140.34 320.749 126.145 343.908 112.397C367.199 98.5474 391.36 84.2313 421.88 84.2313V85.7521C391.795 85.7521 367.857 99.9465 344.698 113.705C321.306 127.585 297.186 141.891 266.685 141.891Z" fill="white" fill-opacity="0.5"/>
<path d="M266.685 131.691C236.185 131.691 212.064 117.375 188.713 103.536C165.564 89.7975 141.616 75.5828 111.541 75.5828C81.4658 75.5828 57.5172 89.7772 34.3584 103.536C21.974 110.897 9.14404 118.511 -4.51629 123.884L-5.06311 122.465C8.4757 117.142 21.2652 109.558 33.6091 102.187C56.8995 88.3375 81.0608 74.0214 111.581 74.0214C142.102 74.0214 166.202 88.3375 189.554 102.187C212.702 115.925 236.641 130.13 266.726 130.13C296.811 130.13 320.749 115.936 343.908 102.187C367.199 88.3375 391.36 74.0214 421.88 74.0214V75.5422C391.795 75.5422 367.857 89.7366 344.698 103.495C321.306 117.375 297.186 131.691 266.685 131.691Z" fill="white" fill-opacity="0.5"/>
<path d="M266.685 121.492C236.185 121.492 212.064 107.176 188.713 93.336C165.564 79.5876 141.616 65.383 111.541 65.383C81.4658 65.383 57.5172 79.5775 34.3584 93.336C21.974 100.697 9.14404 108.311 -4.51629 113.685L-5.06311 112.255C8.4757 106.932 21.2652 99.3483 33.6091 91.9773C56.8995 78.1378 81.0608 63.8217 111.581 63.8217C142.102 63.8217 166.202 78.1378 189.554 91.9875C212.702 105.726 236.641 119.93 266.726 119.93C296.811 119.93 320.749 105.736 343.908 91.9875C367.199 78.1378 391.36 63.8217 421.88 63.8217V65.3425C391.795 65.3425 367.857 79.5369 344.698 93.2954C321.306 107.186 297.186 121.492 266.685 121.492Z" fill="white" fill-opacity="0.5"/>
<path d="M266.685 111.292C236.185 111.292 212.064 96.9758 188.713 83.1261C165.564 69.3879 141.616 55.1834 111.541 55.1834C81.4658 55.1834 57.5172 69.3778 34.3584 83.1261C21.974 90.4971 9.14404 98.1114 -4.51629 103.485L-5.06311 102.116C8.4757 96.7832 21.2652 89.2095 33.6091 81.8385C56.8995 67.9989 81.0608 53.6828 111.581 53.6828C142.102 53.6828 166.202 67.9989 189.554 81.8385C212.702 95.5868 236.641 109.791 266.726 109.791C296.811 109.791 320.749 95.597 343.908 81.8385C367.199 67.9989 391.36 53.6828 421.88 53.6828V55.2036C391.795 55.2036 367.857 69.3981 344.698 83.1464C321.306 96.9759 297.186 111.292 266.685 111.292Z" fill="white" fill-opacity="0.5"/>
<path d="M266.685 101.102C236.185 101.102 212.064 86.7863 188.713 72.9365C165.564 59.1983 141.616 44.9938 111.541 44.9938C81.4658 44.9938 57.5172 59.1882 34.3584 72.9365C21.974 80.2872 9.14404 87.9218 -4.51629 93.2752L-5.06311 91.8658C8.4757 86.5328 21.2652 78.9489 33.6091 71.5881C56.8995 57.7485 81.0608 43.4324 111.581 43.4324C142.102 43.4324 166.202 57.7485 189.554 71.5881C212.702 85.3263 236.641 99.541 266.726 99.541C296.811 99.541 320.749 85.3465 343.908 71.5881C367.199 57.7485 391.36 43.4324 421.88 43.4324V44.9532C391.795 44.9532 367.857 59.1477 344.698 72.896C321.306 86.7761 297.186 101.102 266.685 101.102Z" fill="white" fill-opacity="0.5"/>
<path d="M266.685 90.8925C236.185 90.8925 212.064 76.5764 188.713 62.7267C165.564 48.9885 141.616 34.7839 111.541 34.7839C81.4658 34.7839 57.5172 48.9784 34.3584 62.7267C21.974 70.0875 9.14404 77.7018 -4.51629 83.0754L-5.06311 81.6661C8.4757 76.3331 21.2652 68.7492 33.6091 61.3884C56.8995 47.5488 81.0608 33.2327 111.581 33.2327C142.102 33.2327 166.202 47.5488 189.554 61.3884C212.702 75.1266 236.641 89.3413 266.726 89.3413C296.811 89.3413 320.749 75.1468 343.908 61.3884C367.199 47.5488 391.36 33.2327 421.88 33.2327V34.7535C391.795 34.7535 367.857 48.9479 344.698 62.6963C321.306 76.5764 297.186 90.8925 266.685 90.8925Z" fill="white" fill-opacity="0.5"/>
<path d="M266.685 80.6826C236.185 80.6826 212.064 66.3665 188.713 52.5269C165.564 38.7887 141.616 24.574 111.541 24.574C81.4658 24.574 57.5172 38.7685 34.3584 52.5269C21.974 59.8878 9.14404 67.5021 -4.51629 72.8757L-5.06311 71.4664C8.4757 66.1333 21.2652 58.5494 33.6091 51.1886C56.8995 37.3389 81.0608 23.0228 111.581 23.0228C142.102 23.0228 166.202 37.3389 189.554 51.1886C212.702 64.9268 236.641 79.1314 266.726 79.1314C296.811 79.1314 320.749 64.9369 343.908 51.1886C367.199 37.3389 391.36 23.0228 421.88 23.0228V24.5436C391.795 24.5436 367.857 38.738 344.698 52.4965C321.306 66.3665 297.186 80.6826 266.685 80.6826Z" fill="white" fill-opacity="0.5"/>
<path d="M266.685 70.4829C236.185 70.4829 212.064 56.1668 188.713 42.3272C165.564 28.589 141.616 14.3743 111.541 14.3743C81.4658 14.3743 57.5374 28.589 34.3787 42.2968C21.974 49.6881 9.14404 57.3024 -4.51629 62.676L-5.06311 61.2565C8.4757 55.9336 21.2652 48.3497 33.6091 40.9788C56.8995 27.129 81.0608 12.8129 111.581 12.8129C142.102 12.8129 166.202 27.129 189.554 40.9788C212.702 54.717 236.641 68.9215 266.726 68.9215C296.811 68.9215 320.749 54.7271 343.908 40.9788C367.199 27.129 391.36 12.8129 421.88 12.8129V14.3338C391.795 14.3338 367.857 28.5282 344.698 42.2867C321.306 56.1668 297.186 70.4829 266.685 70.4829Z" fill="white" fill-opacity="0.5"/>
<path d="M266.685 60.2832C236.185 60.2832 212.064 45.9671 188.713 32.1275C165.585 18.3792 141.636 4.17458 111.561 4.17458C81.4861 4.17458 57.5374 18.3792 34.3787 32.1579C21.974 39.4883 9.14404 47.1026 -4.51629 52.4357L-5.06311 51.0162C8.4757 45.6933 21.2652 38.1094 33.6091 30.7385C56.94 16.9496 81.0608 2.65375 111.561 2.65375C142.061 2.65375 166.182 16.9699 189.533 30.8196C212.682 44.5578 236.62 58.7624 266.706 58.7624C296.791 58.7624 320.729 44.5679 343.888 30.8196C367.178 16.9699 391.34 2.65375 421.86 2.65375V4.17458C391.775 4.17458 367.836 18.369 344.678 32.1275C321.306 45.9671 297.186 60.2832 266.685 60.2832Z" fill="white" fill-opacity="0.5"/>
<path d="M266.685 50.0835C236.185 50.0835 212.064 35.7674 188.713 21.9177C165.585 8.17946 141.636 -6.02512 111.561 -6.02512C81.4861 -6.02512 57.5374 8.16933 34.3787 21.9177C21.974 29.2886 9.14404 36.9029 -4.51629 42.2968L-5.06311 40.8774C8.4757 35.5443 21.2652 27.9706 33.6091 20.5996C56.8995 6.76002 81.0608 -7.55609 111.581 -7.55609C142.102 -7.55609 166.202 6.76002 189.554 20.5996C212.702 34.3479 236.641 48.5525 266.726 48.5525C296.811 48.5525 320.749 34.3581 343.908 20.5996C367.199 6.76002 391.36 -7.55609 421.88 -7.55609V-6.03526C391.795 -6.03526 367.857 8.15919 344.698 21.9075C321.306 35.7674 297.186 50.0835 266.685 50.0835Z" fill="white" fill-opacity="0.5"/>
<path d="M266.685 39.8837C236.185 39.8837 212.064 25.5676 188.713 11.7179C165.585 -2.02029 141.636 -16.2249 111.561 -16.2249C81.4861 -16.2249 57.5374 -2.02029 34.3787 11.7179C21.974 19.0787 9.14404 26.693 -4.51629 32.0667L-5.06311 30.6573C8.4757 25.3243 21.2652 17.7404 33.6091 10.3796C56.8995 -3.46001 81.0608 -17.7761 111.581 -17.7761C142.102 -17.7761 166.202 -3.46001 189.554 10.3796C212.702 24.1178 236.641 38.3325 266.726 38.3325C296.811 38.3325 320.749 24.138 343.908 10.3796C367.199 -3.46001 391.36 -17.7761 421.88 -17.7761V-16.2553C391.795 -16.2553 367.857 -2.06085 344.698 11.6875C321.306 25.5676 297.186 39.8837 266.685 39.8837Z" fill="white" fill-opacity="0.5"/>
<path d="M266.685 29.684C236.185 29.684 212.064 15.3578 188.713 1.5182C176.298 -5.86292 163.438 -13.4671 149.798 -18.8306L150.345 -20.25C164.106 -14.8662 177.017 -7.20125 189.503 0.210279C212.662 13.9079 236.6 28.1632 266.685 28.1632C296.77 28.1632 320.709 13.9688 343.868 0.210279C356.353 -7.20125 369.264 -14.8662 383.077 -20.25L383.633 -18.8306C369.912 -13.4671 357.072 -5.86292 344.597 1.5182C321.306 15.3679 297.186 29.684 266.685 29.684Z" fill="white" fill-opacity="0.5"/>
<path d="M-4.51629 21.8669L-5.06311 20.4576C8.4757 15.1246 21.2652 7.5407 33.6091 0.179865C45.953 -7.18097 59.0361 -14.8662 72.7673 -20.25L73.3243 -18.8306C59.6741 -13.4671 46.8137 -5.86292 34.3787 1.5182C21.9436 8.89931 9.14404 16.4933 -4.51629 21.8669Z" fill="white" fill-opacity="0.5"/>
<path d="M266.685 19.4741C236.185 19.4741 212.064 5.15802 188.713 -8.68156C182.971 -12.0984 177.027 -15.6166 171.083 -18.8204L171.812 -20.1588C177.777 -16.8941 183.731 -13.3556 189.493 -9.93878C212.662 3.769 236.6 17.9634 266.685 17.9634C296.77 17.9634 320.709 3.769 343.868 -9.98947C349.619 -13.4063 355.574 -16.9448 361.538 -20.2095L362.267 -18.8711C356.323 -15.6166 350.389 -12.0882 344.637 -8.73225C321.306 5.15803 297.186 19.4741 266.685 19.4741Z" fill="white" fill-opacity="0.5"/>
<path d="M-4.51629 11.6672L-5.06311 10.2478C8.4757 4.92486 21.2652 -2.65903 33.599 -10.03C39.3608 -13.4468 45.315 -16.9853 51.2794 -20.25L52.0085 -18.9117C46.0644 -15.6571 40.1203 -12.1287 34.3787 -8.77278C21.974 -1.30042 9.14404 6.29361 -4.51629 11.6672Z" fill="white" fill-opacity="0.5"/>
<path d="M266.685 9.27446C236.185 9.27446 212.064 -5.04165 188.713 -18.8812L189.493 -20.1891C212.641 -6.45095 236.58 7.75363 266.665 7.75363C296.75 7.75363 320.689 -6.44081 343.837 -20.1891L344.617 -18.8812C321.306 -5.04165 297.186 9.27446 266.685 9.27446Z" fill="white" fill-opacity="0.5"/>
<path d="M-4.51629 1.46748L-5.06311 0.0480404C8.46558 -5.27488 21.2652 -12.8486 33.5888 -20.2297L34.3787 -18.932C21.9639 -11.5103 9.13391 -3.90613 -4.51629 1.46748Z" fill="white" fill-opacity="0.5"/>
</g>
<g clip-path="url(#clip3_1_1940)">
<path d="M302.764 307.561C325.97 293.822 349.978 279.618 380.128 279.618C410.278 279.618 434.287 293.812 457.503 307.561L458.275 306.253C434.926 292.413 410.705 278.097 380.108 278.097C349.512 278.097 325.351 292.413 301.942 306.253L302.764 307.561Z" fill="white" fill-opacity="0.5"/>
<path d="M613.796 307.561C637.013 293.822 661.011 279.618 691.161 279.618C721.311 279.618 745.319 293.812 768.536 307.561L769.307 306.253C745.959 292.413 721.737 278.097 691.14 278.097C660.544 278.097 636.393 292.413 612.974 306.253L613.796 307.561Z" fill="white" fill-opacity="0.5"/>
<path d="M285.049 307.581C291.018 304.316 296.988 300.778 302.764 297.361C325.97 283.602 349.938 269.408 380.128 269.408C410.319 269.408 434.287 283.602 457.544 297.361C463.31 300.778 469.279 304.316 475.258 307.581L475.989 306.243C470.04 302.988 464.082 299.46 458.315 296.053C434.967 282.213 410.745 267.897 380.149 267.897C349.552 267.897 325.392 282.213 301.982 296.053C296.226 299.47 290.267 302.988 284.318 306.243L285.049 307.581Z" fill="white" fill-opacity="0.5"/>
<path d="M596.082 307.581C602.051 304.316 608.02 300.778 613.796 297.361C637.002 283.602 661.011 269.408 691.161 269.408C721.311 269.408 745.319 283.602 768.536 297.351C774.302 300.768 780.271 304.306 786.25 307.571L786.981 306.232C781.032 302.978 775.073 299.449 769.307 296.043C745.959 282.203 721.737 267.887 691.14 267.887C660.544 267.887 636.383 282.203 612.974 296.043C607.218 299.449 601.259 302.978 595.31 306.232L596.082 307.581Z" fill="white" fill-opacity="0.5"/>
<path d="M263.508 307.621C277.294 302.238 290.237 294.573 302.754 287.161C325.97 273.463 349.938 259.269 380.128 259.269C410.319 259.269 434.287 273.463 457.544 287.161C470.061 294.573 483.014 302.238 496.8 307.621L497.358 306.202C483.643 300.838 470.741 293.234 458.275 285.853C434.926 272.003 410.705 257.698 380.108 257.698C349.511 257.698 325.351 272.014 301.941 285.853C289.475 293.234 276.563 300.869 262.909 306.202L263.508 307.621Z" fill="white" fill-opacity="0.5"/>
<path d="M574.53 307.621C588.326 302.238 601.269 294.573 613.796 287.161C637.002 273.464 661.011 259.269 691.161 259.269C721.311 259.269 745.319 273.463 768.536 287.212C780.971 294.522 793.833 302.136 807.528 307.51L808.076 306.101C794.503 300.768 781.682 293.184 769.307 285.823C745.959 271.973 721.737 257.667 691.14 257.667C660.544 257.667 636.383 271.983 612.974 285.823C600.508 293.204 587.595 300.839 573.941 306.172L574.53 307.621Z" fill="white" fill-opacity="0.5"/>
<path d="M535.65 305.117C566.226 305.117 590.407 290.801 613.816 276.961C637.023 263.223 661.031 249.008 691.181 249.008C721.331 249.008 745.339 263.203 768.556 276.961C780.971 284.322 793.833 291.937 807.528 297.31L808.076 295.891C794.503 290.568 781.682 282.984 769.307 275.613C745.959 261.763 721.737 247.447 691.14 247.447C660.544 247.447 636.383 261.763 612.974 275.613C589.767 289.351 565.769 303.556 535.609 303.556C505.449 303.556 481.451 289.361 458.234 275.613C434.886 261.763 410.664 247.447 380.068 247.447V248.968C410.228 248.968 434.226 263.162 457.442 276.921C480.892 290.801 505.073 305.117 535.65 305.117Z" fill="white" fill-opacity="0.5"/>
<path d="M535.65 294.917C566.226 294.917 590.407 280.601 613.816 266.762C637.023 253.013 661.031 238.809 691.181 238.809C721.331 238.809 745.339 253.003 768.556 266.762C780.971 274.123 793.833 281.737 807.528 287.11L808.076 285.691C794.503 280.368 781.682 272.784 769.307 265.413C745.959 251.563 721.737 237.247 691.14 237.247C660.544 237.247 636.383 251.563 612.974 265.413C589.767 279.151 565.769 293.356 535.609 293.356C505.449 293.356 481.451 279.162 458.234 265.413C434.886 251.563 410.664 237.247 380.068 237.247V238.768C410.228 238.768 434.226 252.963 457.442 266.721C480.892 280.561 505.073 294.917 535.65 294.917Z" fill="white" fill-opacity="0.5"/>
<path d="M535.65 284.718C566.226 284.718 590.407 270.402 613.816 256.562C637.023 242.814 661.031 228.609 691.181 228.609C721.331 228.609 745.339 242.803 768.556 256.552C780.971 263.923 793.833 271.537 807.528 276.911L808.076 275.491C794.503 270.158 781.682 262.584 769.307 255.213C745.959 241.374 721.737 227.058 691.14 227.058C660.544 227.058 636.383 241.374 612.974 255.213C589.767 268.962 565.769 283.166 535.609 283.166C505.449 283.166 481.451 268.972 458.234 255.213C434.886 241.374 410.664 227.058 380.068 227.058V228.579C410.228 228.579 434.226 242.773 457.442 256.532C480.892 270.422 505.073 284.718 535.65 284.718Z" fill="white" fill-opacity="0.5"/>
<path d="M535.65 274.477C566.226 274.477 590.407 260.161 613.816 246.312C637.023 232.573 661.031 218.369 691.181 218.369C721.331 218.369 745.339 232.563 768.556 246.312C780.971 253.713 793.833 261.297 807.528 266.701L808.076 265.292C794.503 259.958 781.682 252.375 769.307 245.014C745.959 231.174 721.737 216.858 691.14 216.858C660.544 216.858 636.383 231.174 612.974 245.014C589.767 258.752 565.769 272.967 535.609 272.967C505.449 272.967 481.451 258.772 458.234 245.014C434.886 231.174 410.664 216.858 380.068 216.858V218.379C410.228 218.379 434.226 232.573 457.442 246.322C480.892 260.202 505.073 274.477 535.65 274.477Z" fill="white" fill-opacity="0.5"/>
<path d="M535.65 264.338C566.226 264.338 590.407 250.022 613.816 236.173C637.023 222.434 661.031 208.23 691.181 208.23C721.331 208.23 745.339 222.424 768.556 236.173C780.971 243.513 793.833 251.158 807.528 256.501L808.076 255.092C794.503 249.759 781.682 242.175 769.307 234.814C745.959 220.974 721.737 206.658 691.14 206.658C660.544 206.658 636.383 220.974 612.974 234.814C589.767 248.552 565.769 262.767 535.609 262.767C505.449 262.767 481.451 248.572 458.234 234.814C434.886 220.974 410.664 206.658 380.068 206.658V208.179C410.228 208.179 434.226 222.374 457.442 236.122C480.892 250.002 505.073 264.338 535.65 264.338Z" fill="white" fill-opacity="0.5"/>
<path d="M535.65 254.108C566.226 254.108 590.407 239.792 613.816 225.953C637.023 212.214 661.031 198 691.181 198C721.331 198 745.339 212.194 768.556 225.953C780.971 233.313 793.833 240.928 807.528 246.301L808.076 244.892C794.503 239.559 781.682 231.975 769.307 224.614C745.959 210.765 721.737 196.448 691.14 196.448C660.544 196.448 636.383 210.765 612.974 224.614C589.767 238.353 565.769 252.557 535.609 252.557C505.449 252.557 481.451 238.363 458.234 224.614C434.886 210.765 410.664 196.448 380.068 196.448V197.969C410.228 197.969 434.226 212.164 457.442 225.922C480.892 239.792 505.073 254.108 535.65 254.108Z" fill="white" fill-opacity="0.5"/>
<path d="M535.65 243.909C566.226 243.909 590.407 229.593 613.816 215.753C637.023 202.015 661.031 187.8 691.181 187.8C721.331 187.8 745.339 201.994 768.556 215.753C780.971 223.114 793.833 230.728 807.528 236.102L808.076 234.682C794.503 229.359 781.682 221.775 769.307 214.404C745.959 200.555 721.737 186.239 691.14 186.239C660.544 186.239 636.383 200.555 612.974 214.404C589.767 228.143 565.769 242.347 535.609 242.347C505.449 242.347 481.451 228.153 458.234 214.404C434.886 200.555 410.664 186.239 380.068 186.239V187.759C410.228 187.759 434.226 201.954 457.442 215.712C480.892 229.592 505.073 243.909 535.65 243.909Z" fill="white" fill-opacity="0.5"/>
<path d="M535.65 233.709C566.226 233.709 590.407 219.393 613.816 205.553C637.023 191.805 661.031 177.6 691.181 177.6C721.331 177.6 745.339 191.795 768.556 205.553C780.971 212.914 793.833 220.528 807.528 225.902L808.076 224.482C794.503 219.149 781.682 211.576 769.307 204.205C745.959 190.365 721.737 176.049 691.14 176.049C660.544 176.049 636.383 190.365 612.974 204.205C589.767 217.953 565.769 232.158 535.609 232.158C505.449 232.158 481.451 217.963 458.234 204.205C434.886 190.365 410.664 176.049 380.068 176.049V177.57C410.228 177.57 434.226 191.764 457.442 205.523C480.892 219.393 505.073 233.709 535.65 233.709Z" fill="white" fill-opacity="0.5"/>
<path d="M535.65 223.509C566.226 223.509 590.407 209.193 613.816 195.343C637.023 181.605 661.031 167.401 691.181 167.401C721.331 167.401 745.319 181.605 768.536 195.394C780.971 202.714 793.833 210.329 807.528 215.672L808.076 214.252C794.503 208.919 781.682 201.335 769.307 193.975C745.959 180.135 721.737 165.819 691.14 165.819C660.544 165.819 636.383 180.135 612.974 193.975C589.767 207.723 565.769 221.928 535.609 221.928C505.449 221.928 481.451 207.733 458.234 193.975C434.886 180.135 410.664 165.819 380.068 165.819V167.34C410.228 167.34 434.226 181.534 457.442 195.283C480.892 209.193 505.073 223.509 535.65 223.509Z" fill="white" fill-opacity="0.5"/>
<path d="M535.65 213.309C566.226 213.309 590.407 198.993 613.816 185.144C637.023 171.405 661.031 157.201 691.181 157.201C721.331 157.201 745.339 171.395 768.556 185.144C780.971 192.504 793.833 200.119 807.528 205.533L808.076 204.124C794.503 198.791 781.682 191.207 769.307 183.846C745.959 170.006 721.737 155.69 691.14 155.69C660.544 155.69 636.383 170.006 612.974 183.846C589.767 197.584 565.769 211.799 535.609 211.799C505.449 211.799 481.451 197.604 458.234 183.846C434.886 170.006 410.664 155.69 380.068 155.69V157.211C410.228 157.211 434.226 171.405 457.442 185.154C480.892 198.993 505.073 213.309 535.65 213.309Z" fill="white" fill-opacity="0.5"/>
<path d="M535.65 203.11C566.226 203.11 590.407 188.794 613.816 174.944C637.023 161.206 661.031 147.001 691.181 147.001C721.331 147.001 745.339 161.196 768.556 174.944C780.971 182.305 793.833 189.919 807.528 195.293L808.076 193.883C794.503 188.55 781.682 180.966 769.307 173.606C745.959 159.756 721.737 145.45 691.14 145.45C660.544 145.45 636.383 159.766 612.974 173.606C589.767 187.344 565.769 201.558 535.609 201.558C505.449 201.558 481.451 187.364 458.234 173.606C434.886 159.766 410.664 145.45 380.068 145.45V146.971C410.228 146.971 434.226 161.165 457.442 174.913C480.892 188.794 505.073 203.11 535.65 203.11Z" fill="white" fill-opacity="0.5"/>
<path d="M535.65 192.9C566.226 192.9 590.407 178.584 613.816 164.744C637.023 151.006 661.031 136.791 691.181 136.791C721.331 136.791 745.339 150.986 768.556 164.744C780.971 172.075 793.833 179.719 807.528 185.093L808.076 183.673C794.503 178.351 781.682 170.767 769.307 163.396C745.959 149.546 721.737 135.23 691.14 135.23C660.544 135.23 636.383 149.546 612.974 163.396C589.808 177.144 565.81 191.338 535.65 191.338C505.49 191.338 481.491 177.144 458.275 163.396C434.926 149.546 410.705 135.23 380.108 135.23V136.751C410.268 136.751 434.267 150.945 457.483 164.704C480.892 178.584 505.073 192.9 535.65 192.9Z" fill="white" fill-opacity="0.5"/>
<path d="M535.65 182.7C566.226 182.7 590.407 168.384 613.816 154.544C637.023 140.806 661.031 126.592 691.181 126.592C721.331 126.592 745.339 140.786 768.556 154.544C780.971 161.936 793.833 169.52 807.528 174.893L808.076 173.474C794.503 168.151 781.682 160.567 769.307 153.196C745.959 139.346 721.737 125.03 691.14 125.03C660.544 125.03 636.383 139.346 612.974 153.196C589.808 167.005 565.81 181.2 535.65 181.2C505.49 181.2 481.491 167.005 458.275 153.257C434.926 139.407 410.705 125.091 380.108 125.091V126.612C410.268 126.612 434.267 140.806 457.483 154.565C480.892 168.384 505.073 182.7 535.65 182.7Z" fill="white" fill-opacity="0.5"/>
<path d="M535.65 172.5C566.226 172.5 590.407 158.184 613.816 144.335C637.023 130.596 661.031 116.392 691.181 116.392C721.331 116.392 745.339 130.586 768.556 144.335C780.971 151.706 793.833 159.32 807.528 164.693L808.076 163.274C794.503 157.941 781.682 150.367 769.307 142.996C745.959 129.157 721.737 114.841 691.14 114.841C660.544 114.841 636.383 129.157 612.974 142.996C589.767 156.745 565.769 170.949 535.609 170.949C505.449 170.949 481.451 156.755 458.234 142.996C434.886 129.157 410.664 114.841 380.068 114.841V116.361C410.228 116.361 434.226 130.556 457.442 144.304C480.892 158.184 505.073 172.5 535.65 172.5Z" fill="white" fill-opacity="0.5"/>
<path d="M535.65 162.301C566.226 162.301 590.407 147.985 613.816 134.135C637.002 120.366 661.011 106.172 691.161 106.172C721.311 106.172 745.319 120.366 768.536 134.115C780.971 141.506 793.833 149.11 807.528 154.494L808.076 153.074C794.503 147.741 781.682 140.157 769.307 132.796C745.959 118.957 721.737 104.641 691.14 104.641C660.544 104.641 636.383 118.957 612.974 132.796C589.767 146.535 565.769 160.749 535.609 160.749C505.449 160.749 481.451 146.555 458.234 132.796C434.886 118.957 410.664 104.641 380.068 104.641V106.172C410.228 106.172 434.226 120.366 457.442 134.115C480.892 147.985 505.073 162.301 535.65 162.301Z" fill="white" fill-opacity="0.5"/>
<path d="M535.65 152.101C566.226 152.101 590.407 137.785 613.816 123.935C637.002 110.227 661.011 96.0329 691.161 96.0329C721.311 96.0329 745.319 110.227 768.536 123.976C780.971 131.296 793.833 138.91 807.528 144.284L808.076 142.875C794.503 137.542 781.682 129.958 769.307 122.597C745.959 108.757 721.737 94.4411 691.14 94.4411C660.544 94.4411 636.383 108.757 612.974 122.597C589.767 136.335 565.769 150.55 535.609 150.55C505.449 150.55 481.451 136.355 458.234 122.597C434.886 108.757 410.664 94.4411 380.068 94.4411V96.0329C410.228 96.0329 434.226 110.227 457.442 123.976C480.892 137.785 505.073 152.101 535.65 152.101Z" fill="white" fill-opacity="0.5"/>
<path d="M535.65 141.891C566.226 141.891 590.407 127.585 613.816 113.735C637.023 99.9972 661.031 85.7825 691.181 85.7825C721.331 85.7825 745.339 99.977 768.556 113.735C780.971 121.096 793.833 128.711 807.528 134.084L808.076 132.675C794.503 127.342 781.682 119.758 769.307 112.397C745.959 98.5474 721.737 84.2313 691.14 84.2313C660.544 84.2313 636.383 98.5474 612.974 112.397C589.767 126.135 565.769 140.34 535.609 140.34C505.449 140.34 481.451 126.145 458.234 112.397C434.886 98.5474 410.664 84.2313 380.068 84.2313V85.7521C410.228 85.7521 434.226 99.9465 457.442 113.705C480.892 127.585 505.073 141.891 535.65 141.891Z" fill="white" fill-opacity="0.5"/>
<path d="M535.65 131.691C566.226 131.691 590.407 117.375 613.816 103.536C637.023 89.7975 661.031 75.5828 691.181 75.5828C721.331 75.5828 745.339 89.7772 768.556 103.536C780.971 110.897 793.833 118.511 807.528 123.884L808.076 122.465C794.503 117.142 781.682 109.558 769.307 102.187C745.959 88.3375 721.737 74.0214 691.14 74.0214C660.544 74.0214 636.383 88.3375 612.974 102.187C589.767 115.925 565.769 130.13 535.609 130.13C505.449 130.13 481.451 115.936 458.234 102.187C434.886 88.3375 410.664 74.0214 380.068 74.0214V75.5422C410.228 75.5422 434.226 89.7366 457.442 103.495C480.892 117.375 505.073 131.691 535.65 131.691Z" fill="white" fill-opacity="0.5"/>
<path d="M535.65 121.492C566.226 121.492 590.407 107.176 613.816 93.336C637.023 79.5876 661.031 65.383 691.181 65.383C721.331 65.383 745.339 79.5775 768.556 93.336C780.971 100.697 793.833 108.311 807.528 113.685L808.076 112.255C794.503 106.932 781.682 99.3483 769.307 91.9773C745.959 78.1378 721.737 63.8217 691.14 63.8217C660.544 63.8217 636.383 78.1378 612.974 91.9875C589.767 105.726 565.769 119.93 535.609 119.93C505.449 119.93 481.451 105.736 458.234 91.9875C434.886 78.1378 410.664 63.8217 380.068 63.8217V65.3425C410.228 65.3425 434.226 79.5369 457.442 93.2954C480.892 107.186 505.073 121.492 535.65 121.492Z" fill="white" fill-opacity="0.5"/>
<path d="M535.65 111.292C566.226 111.292 590.407 96.9758 613.816 83.1261C637.023 69.3879 661.031 55.1834 691.181 55.1834C721.331 55.1834 745.339 69.3778 768.556 83.1261C780.971 90.4971 793.833 98.1114 807.528 103.485L808.076 102.116C794.503 96.7832 781.682 89.2095 769.307 81.8385C745.959 67.9989 721.737 53.6828 691.14 53.6828C660.544 53.6828 636.383 67.9989 612.974 81.8385C589.767 95.5868 565.769 109.791 535.609 109.791C505.449 109.791 481.451 95.597 458.234 81.8385C434.886 67.9989 410.664 53.6828 380.068 53.6828V55.2036C410.228 55.2036 434.226 69.3981 457.442 83.1464C480.892 96.9759 505.073 111.292 535.65 111.292Z" fill="white" fill-opacity="0.5"/>
<path d="M535.65 101.102C566.226 101.102 590.407 86.7863 613.816 72.9365C637.023 59.1983 661.031 44.9938 691.181 44.9938C721.331 44.9938 745.339 59.1882 768.556 72.9365C780.971 80.2872 793.833 87.9218 807.528 93.2752L808.076 91.8658C794.503 86.5328 781.682 78.9489 769.307 71.5881C745.959 57.7485 721.737 43.4324 691.14 43.4324C660.544 43.4324 636.383 57.7485 612.974 71.5881C589.767 85.3263 565.769 99.541 535.609 99.541C505.449 99.541 481.451 85.3465 458.234 71.5881C434.886 57.7485 410.664 43.4324 380.068 43.4324V44.9532C410.228 44.9532 434.226 59.1477 457.442 72.896C480.892 86.7761 505.073 101.102 535.65 101.102Z" fill="white" fill-opacity="0.5"/>
<path d="M535.65 90.8925C566.226 90.8925 590.407 76.5764 613.816 62.7267C637.023 48.9885 661.031 34.7839 691.181 34.7839C721.331 34.7839 745.339 48.9784 768.556 62.7267C780.971 70.0875 793.833 77.7018 807.528 83.0754L808.076 81.6661C794.503 76.3331 781.682 68.7492 769.307 61.3884C745.959 47.5488 721.737 33.2327 691.14 33.2327C660.544 33.2327 636.383 47.5488 612.974 61.3884C589.767 75.1266 565.769 89.3413 535.609 89.3413C505.449 89.3413 481.451 75.1468 458.234 61.3884C434.886 47.5488 410.664 33.2327 380.068 33.2327V34.7535C410.228 34.7535 434.226 48.9479 457.442 62.6963C480.892 76.5764 505.073 90.8925 535.65 90.8925Z" fill="white" fill-opacity="0.5"/>
<path d="M535.65 80.6826C566.226 80.6826 590.407 66.3665 613.816 52.5269C637.023 38.7887 661.031 24.574 691.181 24.574C721.331 24.574 745.339 38.7685 768.556 52.5269C780.971 59.8878 793.833 67.5021 807.528 72.8757L808.076 71.4664C794.503 66.1333 781.682 58.5494 769.307 51.1886C745.959 37.3389 721.737 23.0228 691.14 23.0228C660.544 23.0228 636.383 37.3389 612.974 51.1886C589.767 64.9268 565.769 79.1314 535.609 79.1314C505.449 79.1314 481.451 64.9369 458.234 51.1886C434.886 37.3389 410.664 23.0228 380.068 23.0228V24.5436C410.228 24.5436 434.226 38.738 457.442 52.4965C480.892 66.3665 505.073 80.6826 535.65 80.6826Z" fill="white" fill-opacity="0.5"/>
<path d="M535.65 70.4829C566.226 70.4829 590.407 56.1668 613.816 42.3272C637.023 28.589 661.031 14.3743 691.181 14.3743C721.331 14.3743 745.319 28.589 768.536 42.2968C780.971 49.6881 793.833 57.3024 807.528 62.676L808.076 61.2565C794.503 55.9336 781.682 48.3497 769.307 40.9788C745.959 27.129 721.737 12.8129 691.14 12.8129C660.544 12.8129 636.383 27.129 612.974 40.9788C589.767 54.717 565.769 68.9215 535.609 68.9215C505.449 68.9215 481.451 54.7271 458.234 40.9788C434.886 27.129 410.664 12.8129 380.068 12.8129V14.3338C410.228 14.3338 434.226 28.5282 457.442 42.2867C480.892 56.1668 505.073 70.4829 535.65 70.4829Z" fill="white" fill-opacity="0.5"/>
<path d="M535.65 60.2832C566.226 60.2832 590.407 45.9671 613.816 32.1275C637.002 18.3792 661.011 4.17458 691.161 4.17458C721.311 4.17458 745.319 18.3792 768.536 32.1579C780.971 39.4883 793.833 47.1026 807.528 52.4357L808.076 51.0162C794.503 45.6933 781.682 38.1094 769.307 30.7385C745.918 16.9496 721.737 2.65375 691.161 2.65375C660.584 2.65375 636.403 16.9699 612.994 30.8196C589.788 44.5578 565.79 58.7624 535.629 58.7624C505.469 58.7624 481.471 44.5679 458.255 30.8196C434.906 16.9699 410.685 2.65375 380.088 2.65375V4.17458C410.248 4.17458 434.246 18.369 457.463 32.1275C480.892 45.9671 505.073 60.2832 535.65 60.2832Z" fill="white" fill-opacity="0.5"/>
<path d="M535.65 50.0835C566.226 50.0835 590.407 35.7674 613.816 21.9177C637.002 8.17946 661.011 -6.02512 691.161 -6.02512C721.311 -6.02512 745.319 8.16933 768.536 21.9177C780.971 29.2886 793.833 36.9029 807.528 42.2968L808.076 40.8774C794.503 35.5443 781.682 27.9706 769.307 20.5996C745.959 6.76002 721.737 -7.55609 691.14 -7.55609C660.544 -7.55609 636.383 6.76002 612.974 20.5996C589.767 34.3479 565.769 48.5525 535.609 48.5525C505.449 48.5525 481.451 34.3581 458.234 20.5996C434.886 6.76002 410.664 -7.55609 380.068 -7.55609V-6.03526C410.228 -6.03526 434.226 8.15919 457.442 21.9075C480.892 35.7674 505.073 50.0835 535.65 50.0835Z" fill="white" fill-opacity="0.5"/>
<path d="M535.65 39.8837C566.226 39.8837 590.407 25.5676 613.816 11.7179C637.002 -2.02029 661.011 -16.2249 691.161 -16.2249C721.311 -16.2249 745.319 -2.02029 768.536 11.7179C780.971 19.0787 793.833 26.693 807.528 32.0667L808.076 30.6573C794.503 25.3243 781.682 17.7404 769.307 10.3796C745.959 -3.46001 721.737 -17.7761 691.14 -17.7761C660.544 -17.7761 636.383 -3.46001 612.974 10.3796C589.767 24.1178 565.769 38.3325 535.609 38.3325C505.449 38.3325 481.451 24.138 458.234 10.3796C434.886 -3.46001 410.664 -17.7761 380.068 -17.7761V-16.2553C410.228 -16.2553 434.226 -2.06085 457.442 11.6875C480.892 25.5676 505.073 39.8837 535.65 39.8837Z" fill="white" fill-opacity="0.5"/>
<path d="M535.65 29.684C566.226 29.684 590.407 15.3578 613.816 1.5182C626.262 -5.86292 639.155 -13.4671 652.829 -18.8306L652.28 -20.25C638.485 -14.8662 625.541 -7.20125 613.025 0.210279C589.808 13.9079 565.81 28.1632 535.65 28.1632C505.49 28.1632 481.491 13.9688 458.275 0.210279C445.758 -7.20125 432.815 -14.8662 418.968 -20.25L418.41 -18.8306C432.165 -13.4671 445.037 -5.86292 457.544 1.5182C480.892 15.3679 505.073 29.684 535.65 29.684Z" fill="white" fill-opacity="0.5"/>
<path d="M807.528 21.8669L808.076 20.4576C794.503 15.1246 781.682 7.5407 769.307 0.179865C756.932 -7.18097 743.817 -14.8662 730.051 -20.25L729.493 -18.8306C743.177 -13.4671 756.07 -5.86292 768.536 1.5182C781.002 8.89931 793.833 16.4933 807.528 21.8669Z" fill="white" fill-opacity="0.5"/>
<path d="M535.65 19.4741C566.226 19.4741 590.407 5.15802 613.816 -8.68156C619.572 -12.0984 625.531 -15.6166 631.49 -18.8204L630.759 -20.1588C624.78 -16.8941 618.811 -13.3556 613.035 -9.93878C589.808 3.769 565.81 17.9634 535.65 17.9634C505.49 17.9634 481.491 3.769 458.275 -9.98947C452.509 -13.4063 446.54 -16.9448 440.56 -20.2095L439.829 -18.8711C445.788 -15.6166 451.737 -12.0882 457.503 -8.73225C480.892 5.15803 505.073 19.4741 535.65 19.4741Z" fill="white" fill-opacity="0.5"/>
<path d="M807.528 11.6672L808.076 10.2478C794.503 4.92486 781.682 -2.65903 769.317 -10.03C763.541 -13.4468 757.572 -16.9853 751.593 -20.25L750.862 -18.9117C756.821 -15.6571 762.78 -12.1287 768.536 -8.77278C780.971 -1.30042 793.833 6.29361 807.528 11.6672Z" fill="white" fill-opacity="0.5"/>
<path d="M535.65 9.27446C566.226 9.27446 590.407 -5.04165 613.816 -18.8812L613.035 -20.1891C589.828 -6.45095 565.83 7.75363 535.67 7.75363C505.51 7.75363 481.512 -6.44081 458.305 -20.1891L457.524 -18.8812C480.892 -5.04165 505.073 9.27446 535.65 9.27446Z" fill="white" fill-opacity="0.5"/>
<path d="M807.528 1.46748L808.076 0.0480404C794.513 -5.27488 781.682 -12.8486 769.327 -20.2297L768.536 -18.932C780.981 -11.5103 793.843 -3.90613 807.528 1.46748Z" fill="white" fill-opacity="0.5"/>
</g>
</g>
<defs>
<clipPath id="clip0_1_1940">
<path d="M0 40C0 17.9086 17.9086 0 40 0H1204V288H40C17.9086 288 0 270.091 0 248V40Z" fill="white"/>
</clipPath>
<clipPath id="clip1_1_1940">
<rect width="401" height="292" fill="white" transform="translate(803 -2)"/>
</clipPath>
<clipPath id="clip2_1_1940">
<rect width="401" height="292" fill="white" transform="translate(0 -2)"/>
</clipPath>
<clipPath id="clip3_1_1940">
<rect width="402" height="292" fill="white" transform="matrix(-1 0 0 1 803 -2)"/>
</clipPath>
</defs>
</svg>
