<svg width="685" height="441" viewBox="0 0 685 441" fill="none" xmlns="http://www.w3.org/2000/svg">
<g clip-path="url(#clip0_0_1)">
<path d="M52.6176 382.201L59.5903 380.332C59.8545 380.262 60.0798 380.089 60.2165 379.852C60.3533 379.615 60.3903 379.333 60.3196 379.069C60.2488 378.805 60.0759 378.58 59.8391 378.443C59.6022 378.306 59.3207 378.269 59.0565 378.34L52.0838 380.208C51.8196 380.279 51.5943 380.452 51.4576 380.689C51.3208 380.926 51.2838 381.207 51.3546 381.471C51.4253 381.736 51.5982 381.961 51.835 382.098C52.0719 382.234 52.3534 382.271 52.6176 382.201Z" fill="#8B96F6" fill-opacity="0.5"/>
<path d="M48.7047 387.52L60.6581 384.317C60.9222 384.246 61.1475 384.073 61.2842 383.836C61.421 383.599 61.4581 383.318 61.3873 383.054C61.3165 382.789 61.1436 382.564 60.9068 382.427C60.6699 382.291 60.3884 382.254 60.1242 382.324L48.1709 385.527C47.9067 385.598 47.6815 385.771 47.5447 386.008C47.408 386.245 47.3709 386.526 47.4417 386.79C47.5125 387.054 47.6853 387.28 47.9222 387.416C48.1591 387.553 48.4405 387.59 48.7047 387.52Z" fill="#8B96F6" fill-opacity="0.5"/>
<path d="M49.7724 391.504L61.7257 388.301C61.9899 388.23 62.2151 388.057 62.3519 387.821C62.4886 387.584 62.5257 387.302 62.4549 387.038C62.3841 386.774 62.2113 386.549 61.9744 386.412C61.7375 386.275 61.4561 386.238 61.1919 386.309L49.2385 389.512C48.9744 389.582 48.7491 389.755 48.6124 389.992C48.4756 390.229 48.4386 390.51 48.5093 390.775C48.5801 391.039 48.753 391.264 48.9898 391.401C49.2267 391.538 49.5082 391.575 49.7724 391.504Z" fill="#8B96F6" fill-opacity="0.5"/>
<path d="M50.84 395.488L62.7933 392.286C63.0575 392.215 63.2827 392.042 63.4195 391.805C63.5563 391.568 63.5933 391.287 63.5225 391.023C63.4517 390.758 63.2789 390.533 63.042 390.396C62.8052 390.26 62.5237 390.223 62.2595 390.293L50.3062 393.496C50.042 393.567 49.8167 393.74 49.68 393.977C49.5432 394.214 49.5062 394.495 49.577 394.759C49.6478 395.023 49.8206 395.249 50.0575 395.385C50.2943 395.522 50.5758 395.559 50.84 395.488Z" fill="#8B96F6" fill-opacity="0.5"/>
<path d="M51.9076 399.473L63.8609 396.27C64.1251 396.199 64.3504 396.026 64.4871 395.79C64.6239 395.553 64.6609 395.271 64.5901 395.007C64.5194 394.743 64.3465 394.518 64.1097 394.381C63.8728 394.244 63.5913 394.207 63.3271 394.278L51.3738 397.481C51.1096 397.551 50.8844 397.724 50.7476 397.961C50.6109 398.198 50.5738 398.479 50.6446 398.744C50.7154 399.008 50.8882 399.233 51.1251 399.37C51.3619 399.507 51.6434 399.544 51.9076 399.473Z" fill="#8B96F6" fill-opacity="0.5"/>
<path d="M52.9752 403.457L59.948 401.589C60.2122 401.518 60.4374 401.345 60.5742 401.108C60.7109 400.872 60.748 400.59 60.6772 400.326C60.6064 400.062 60.4336 399.836 60.1967 399.7C59.9599 399.563 59.6784 399.526 59.4142 399.597L52.4414 401.465C52.1772 401.536 51.952 401.709 51.8152 401.946C51.6785 402.182 51.6414 402.464 51.7122 402.728C51.783 402.992 51.9558 403.217 52.1927 403.354C52.4296 403.491 52.7111 403.528 52.9752 403.457Z" fill="#8B96F6" fill-opacity="0.5"/>
<path d="M59.3043 363.327L5.51433 377.74C4.72314 377.954 4.04898 378.473 3.6391 379.183C3.22922 379.893 3.11692 380.736 3.32672 381.529L17.7397 435.319C17.9542 436.11 18.4731 436.784 19.1831 437.194C19.893 437.604 20.7363 437.716 21.5288 437.506L75.3188 423.093C76.1099 422.879 76.7841 422.36 77.194 421.65C77.6039 420.94 77.7162 420.097 77.5064 419.304L63.0934 365.514C62.8788 364.723 62.3599 364.049 61.65 363.639C60.9401 363.229 60.0968 363.117 59.3043 363.327ZM75.5141 419.838C75.5849 420.102 75.5479 420.384 75.4111 420.621C75.2744 420.858 75.0491 421.03 74.7849 421.101L20.9949 435.514C20.7308 435.585 20.4493 435.548 20.2124 435.411C19.9756 435.274 19.8027 435.049 19.7319 434.785L7.18729 387.968L62.9695 373.021L75.5141 419.838ZM62.4357 371.029L6.65348 385.976L5.31894 380.995C5.24816 380.731 5.28521 380.449 5.42197 380.213C5.55872 379.976 5.78396 379.803 6.04815 379.732L59.8381 365.319C60.1023 365.248 60.3838 365.285 60.6207 365.422C60.8575 365.559 61.0304 365.784 61.1012 366.048L62.4357 371.029Z" fill="#8B96F6" fill-opacity="0.5"/>
<path d="M9.57035 380.923L8.57424 381.19C8.31005 381.261 8.08481 381.434 7.94805 381.671C7.8113 381.908 7.77424 382.189 7.84503 382.453C7.91582 382.718 8.08866 382.943 8.32552 383.08C8.56238 383.216 8.84387 383.253 9.10805 383.183L10.1042 382.916C10.3683 382.845 10.5936 382.672 10.7303 382.435C10.8671 382.198 10.9042 381.917 10.8334 381.653C10.7626 381.388 10.5897 381.163 10.3529 381.026C10.116 380.89 9.83453 380.853 9.57035 380.923Z" fill="#8B96F6" fill-opacity="0.5"/>
<path d="M14.5508 379.589L13.5547 379.856C13.2905 379.927 13.0653 380.1 12.9285 380.336C12.7918 380.573 12.7547 380.855 12.8255 381.119C12.8963 381.383 13.0691 381.608 13.306 381.745C13.5428 381.882 13.8243 381.919 14.0885 381.848L15.0846 381.581C15.3488 381.51 15.5741 381.338 15.7108 381.101C15.8476 380.864 15.8846 380.582 15.8138 380.318C15.743 380.054 15.5702 379.829 15.3333 379.692C15.0965 379.555 14.815 379.518 14.5508 379.589Z" fill="#8B96F6" fill-opacity="0.5"/>
<path d="M19.5314 378.255L18.5353 378.521C18.2711 378.592 18.0459 378.765 17.9091 379.002C17.7724 379.239 17.7353 379.52 17.8061 379.784C17.8769 380.049 18.0497 380.274 18.2866 380.411C18.5234 380.547 18.8049 380.584 19.0691 380.514L20.0652 380.247C20.3294 380.176 20.5547 380.003 20.6914 379.766C20.8282 379.529 20.8652 379.248 20.7944 378.984C20.7236 378.72 20.5508 378.494 20.3139 378.358C20.0771 378.221 19.7956 378.184 19.5314 378.255Z" fill="#8B96F6" fill-opacity="0.5"/>
<path d="M58.3798 367.845L57.3837 368.112C57.1195 368.183 56.8943 368.356 56.7575 368.592C56.6207 368.829 56.5837 369.111 56.6545 369.375C56.7253 369.639 56.8981 369.864 57.135 370.001C57.3718 370.138 57.6533 370.175 57.9175 370.104L58.9136 369.837C59.1778 369.767 59.403 369.594 59.5398 369.357C59.6765 369.12 59.7136 368.838 59.6428 368.574C59.572 368.31 59.3992 368.085 59.1623 367.948C58.9255 367.811 58.644 367.774 58.3798 367.845Z" fill="#8B96F6" fill-opacity="0.5"/>
<path d="M47.6371 383.535L48.6332 383.268C48.8974 383.197 49.1226 383.025 49.2594 382.788C49.3961 382.551 49.4332 382.269 49.3624 382.005C49.2916 381.741 49.1188 381.516 48.8819 381.379C48.6451 381.242 48.3636 381.205 48.0994 381.276L47.1033 381.543C46.8391 381.614 46.6139 381.787 46.4771 382.023C46.3404 382.26 46.3033 382.542 46.3741 382.806C46.4449 383.07 46.6177 383.295 46.8546 383.432C47.0914 383.569 47.3729 383.606 47.6371 383.535Z" fill="#8B96F6" fill-opacity="0.5"/>
<path d="M64.3947 398.262L63.3986 398.529C63.1344 398.6 62.9091 398.773 62.7724 399.01C62.6356 399.247 62.5986 399.528 62.6694 399.792C62.7402 400.056 62.913 400.282 63.1499 400.418C63.3867 400.555 63.6682 400.592 63.9324 400.521L64.9285 400.255C65.1927 400.184 65.4179 400.011 65.5547 399.774C65.6914 399.537 65.7285 399.256 65.6577 398.992C65.5869 398.727 65.4141 398.502 65.1772 398.365C64.9404 398.229 64.6589 398.192 64.3947 398.262Z" fill="#8B96F6" fill-opacity="0.5"/>
<path d="M53.3992 369.18L29.4926 375.585C29.2284 375.656 29.0031 375.829 28.8664 376.066C28.7296 376.303 28.6926 376.584 28.7634 376.848C28.8342 377.113 29.007 377.338 29.2439 377.475C29.4807 377.611 29.7622 377.648 30.0264 377.578L53.933 371.172C54.1972 371.101 54.4225 370.928 54.5592 370.691C54.696 370.454 54.733 370.173 54.6623 369.909C54.5915 369.645 54.4186 369.419 54.1818 369.283C53.9449 369.146 53.6634 369.109 53.3992 369.18Z" fill="#8B96F6" fill-opacity="0.5"/>
<path d="M19.1074 412.532L47.9947 404.792C48.2589 404.721 48.4841 404.548 48.6208 404.311C48.7576 404.074 48.7947 403.793 48.7239 403.529L43.3857 383.607C43.3149 383.342 43.1421 383.117 42.9052 382.98C42.6684 382.844 42.3869 382.807 42.1227 382.877L13.2355 390.618C12.9713 390.688 12.7461 390.861 12.6093 391.098C12.4726 391.335 12.4355 391.616 12.5063 391.881L17.8444 411.803C17.9152 412.067 18.0881 412.292 18.3249 412.429C18.5618 412.566 18.8433 412.603 19.1074 412.532ZM30.7094 403.165L30.7163 403.143L33.9998 392.407L45.6679 403.28L29.3316 407.657L30.7094 403.165ZM26.9868 408.286L20.4344 410.041L24.087 399.24L28.5557 403.168L26.9868 408.286ZM41.6604 385.136L45.8012 400.59L34.1994 389.773C34.0675 389.662 33.911 389.585 33.7431 389.548C33.5752 389.511 33.4009 389.515 33.2348 389.56C33.0688 389.604 32.9159 389.688 32.789 389.804C32.6622 389.92 32.5651 390.065 32.506 390.226L29.2117 401.002L24.2832 396.674C24.1523 396.57 23.9992 396.499 23.836 396.466C23.6728 396.432 23.5041 396.437 23.3432 396.481C23.1823 396.524 23.0337 396.604 22.9091 396.714C22.7846 396.825 22.6875 396.963 22.6257 397.118L18.9559 407.982L14.7654 392.343L41.6604 385.136Z" fill="#8B96F6" fill-opacity="0.5"/>
<path d="M52.7989 422.722L40.8456 425.925C40.5814 425.996 40.2999 425.958 40.0631 425.822C39.8262 425.685 39.6534 425.46 39.5826 425.196L36.3797 413.242C36.3089 412.978 36.346 412.697 36.4827 412.46C36.6195 412.223 36.8447 412.05 37.1089 411.979L49.0622 408.776C49.3264 408.706 49.6079 408.743 49.8448 408.879C50.0816 409.016 50.2545 409.241 50.3253 409.506L53.5281 421.459C53.5989 421.723 53.5619 422.005 53.4251 422.241C53.2884 422.478 53.0631 422.651 52.7989 422.722ZM41.3079 423.666L51.269 420.997L48.5999 411.035L38.6388 413.705L41.3079 423.666Z" fill="#8B96F6" fill-opacity="0.5"/>
<path d="M69.7329 418.185L57.7796 421.387C57.5154 421.458 57.2339 421.421 56.997 421.284C56.7602 421.148 56.5873 420.922 56.5165 420.658L53.3137 408.705C53.2429 408.441 53.2799 408.159 53.4167 407.922C53.5534 407.685 53.7787 407.513 54.0429 407.442L65.9962 404.239C66.2604 404.168 66.5419 404.205 66.7787 404.342C67.0156 404.479 67.1884 404.704 67.2592 404.968L70.4621 416.921C70.5329 417.186 70.4958 417.467 70.3591 417.704C70.2223 417.941 69.9971 418.114 69.7329 418.185ZM58.2419 419.128L68.203 416.459L65.5339 406.498L55.5728 409.167L58.2419 419.128Z" fill="#8B96F6" fill-opacity="0.5"/>
<path d="M35.8651 427.259L23.9118 430.462C23.6476 430.533 23.3661 430.496 23.1292 430.359C22.8924 430.222 22.7195 429.997 22.6487 429.733L19.4459 417.78C19.3751 417.515 19.4121 417.234 19.5489 416.997C19.6856 416.76 19.9109 416.587 20.1751 416.517L32.1284 413.314C32.3926 413.243 32.6741 413.28 32.9109 413.417C33.1478 413.553 33.3206 413.779 33.3914 414.043L36.5943 425.996C36.6651 426.26 36.628 426.542 36.4913 426.779C36.3545 427.016 36.1293 427.188 35.8651 427.259ZM24.3741 428.203L34.3352 425.534L31.6661 415.573L21.705 418.242L24.3741 428.203Z" fill="#8B96F6" fill-opacity="0.5"/>
</g>
<g clip-path="url(#clip1_0_1)">
<path d="M601.902 14.4301C601.326 14.0979 600.591 14.295 600.259 14.8703C599.926 15.4457 600.124 16.1814 600.699 16.5135C604.146 18.5036 605.331 22.9267 603.342 26.3731C603.009 26.9485 603.207 27.6842 603.782 28.0163C604.357 28.3485 605.093 28.1513 605.425 27.576C608.078 22.9808 606.498 17.0835 601.902 14.4301Z" fill="#FF9E2A" fill-opacity="0.5"/>
<path d="M601.461 8.994C596.187 7.26015 590.189 8.83653 586.45 12.9926C583.293 16.502 582.02 21.1201 582.957 25.6626C583.415 27.883 583.046 30.2516 581.94 32.1663L580.737 34.2498C579.937 35.636 580.165 37.3376 581.181 38.4682C580.188 41.1383 581.17 44.3146 583.779 45.8214C586.388 47.3277 589.63 46.5903 591.446 44.395C592.934 44.7099 594.521 44.0562 595.322 42.6699L596.524 40.5865C597.632 38.6679 599.488 37.1883 601.749 36.42C605.059 35.2956 607.844 33.0091 609.592 29.9818C614.145 22.0949 610.389 11.9293 601.461 8.994ZM584.982 43.738C583.643 42.9648 583.001 41.3655 583.282 39.8768L589.176 43.2794C588.027 44.2675 586.321 44.5111 584.982 43.738ZM593.238 41.4671C592.906 42.0415 592.169 42.239 591.595 41.9074L583.261 37.0958C582.687 36.7642 582.489 36.0271 582.821 35.4527L583.422 34.4109L593.84 40.4254L593.238 41.4671ZM600.975 34.1422C598.565 34.9609 596.517 36.4436 595.1 38.375L584.568 32.2945C585.533 30.1003 585.807 27.5671 585.314 25.1767C584.533 21.3909 585.599 17.5363 588.239 14.6015C591.321 11.1754 596.332 9.84043 600.71 11.2796C608.183 13.7361 611.3 22.2127 607.508 28.7789C606.053 31.3007 603.732 33.2055 600.975 34.1422Z" fill="#FF9E2A" fill-opacity="0.5"/>
<path d="M582.438 14.3043L580.354 13.1014C579.779 12.7693 579.043 12.9664 578.711 13.5417C578.379 14.117 578.576 14.8527 579.151 15.1849L581.235 16.3878C581.81 16.7199 582.546 16.5228 582.878 15.9475C583.21 15.3722 583.013 14.6365 582.438 14.3043Z" fill="#FF9E2A" fill-opacity="0.5"/>
<path d="M585.876 9.34483L585.254 7.02105C585.082 6.37938 584.422 5.99855 583.78 6.17049C583.139 6.34244 582.758 7.00199 582.93 7.64371L583.552 9.96748C583.724 10.6092 584.384 10.9901 585.026 10.818C585.667 10.6461 586.048 9.98654 585.876 9.34483Z" fill="#FF9E2A" fill-opacity="0.5"/>
<path d="M579.51 20.3723C579.338 19.7306 578.678 19.3498 578.036 19.5218L575.713 20.1444C575.071 20.3164 574.69 20.9759 574.862 21.6177C575.034 22.2593 575.693 22.6402 576.335 22.4682L578.659 21.8456C579.301 21.6736 579.681 21.0141 579.51 20.3723Z" fill="#FF9E2A" fill-opacity="0.5"/>
<path d="M613.828 32.4279L611.745 31.225C611.17 30.8928 610.434 31.09 610.102 31.6653C609.77 32.2406 609.967 32.9763 610.542 33.3084L612.625 34.5113C613.201 34.8435 613.936 34.6463 614.269 34.071C614.601 33.4957 614.404 32.76 613.828 32.4279Z" fill="#FF9E2A" fill-opacity="0.5"/>
<path d="M618.118 25.9949C617.946 25.3532 617.286 24.9724 616.644 25.1443L614.321 25.767C613.679 25.9389 613.298 26.5985 613.47 27.2402C613.642 27.8818 614.302 28.2627 614.943 28.0908L617.267 27.4681C617.909 27.2962 618.29 26.6366 618.118 25.9949Z" fill="#FF9E2A" fill-opacity="0.5"/>
<path d="M610.05 39.9691L609.427 37.6453C609.255 37.0036 608.596 36.6228 607.954 36.7948C607.312 36.9667 606.931 37.6263 607.103 38.268L607.726 40.5917C607.898 41.2334 608.557 41.6143 609.199 41.4423C609.841 41.2704 610.222 40.6108 610.05 39.9691Z" fill="#FF9E2A" fill-opacity="0.5"/>
</g>
<path d="M684.766 295.745L677.313 323.558L656.953 303.197L684.766 295.745Z" fill="#1DA97A" fill-opacity="0.4"/>
<circle cx="205" cy="22" r="14" fill="#FFB5B0"/>
<defs>
<clipPath id="clip0_0_1">
<rect width="66" height="66" fill="white" transform="translate(0 377.082) rotate(-15)"/>
</clipPath>
<clipPath id="clip1_0_1">
<rect width="41.0585" height="41.0585" fill="white" transform="translate(586.529) rotate(30)"/>
</clipPath>
</defs>
</svg>
