<svg width="93" height="94" viewBox="0 0 93 94" fill="none" xmlns="http://www.w3.org/2000/svg">
<g clip-path="url(#clip0_1_2146)">
<path d="M4.06692 53.3378C13.6273 66.633 31.7935 71.4597 47.4864 70.0259C55.2248 69.3231 63.2423 66.3273 67.1975 59.1888C68.8905 56.0882 69.701 52.4468 68.8172 48.9666C68.2915 46.8528 67.0793 44.5299 64.758 44.0621C61.2243 43.3555 60.2677 47.3219 62.1323 49.6818C65.614 54.0373 72.7143 49.7517 75.8998 47.2029C79.6325 44.2142 82.4882 40.3347 85.0274 36.3157C85.7465 35.1745 87.4211 36.464 86.6933 37.5986C83.6388 42.3948 80.0361 47.019 75.2398 50.189C71.7635 52.493 67.0255 54.5408 62.9021 52.6784C59.903 51.3136 58.0354 47.2076 59.8264 44.1964C61.6933 41.0143 66.1134 41.5352 68.4177 43.8655C74.8833 50.3452 69.7447 61.4561 63.8458 66.2293C55.6387 72.8722 43.4249 72.9004 33.5057 71.3472C21.6883 69.4715 10.1859 64.0384 3.29741 53.9401C2.97887 53.4517 3.70308 52.8631 4.0555 53.3707L4.06692 53.3378Z" fill="#FFD5D5"/>
<path d="M75.8825 38.881C77.0943 40.7174 82.8166 36.6696 83.815 36.0769C84.6637 35.5702 85.6657 34.9456 86.6046 35.7381C87.6089 36.581 87.1266 38.4882 87.0579 39.5607C86.8877 42.2084 86.8077 44.8561 86.5166 47.4803C86.377 48.7622 84.5445 48.4625 84.569 47.2309C84.6195 45.0815 84.811 42.9295 84.9528 40.7878C84.9852 40.3126 85.4611 37.8725 84.9622 37.6272C84.395 37.9369 83.8531 38.2908 83.3414 38.6855C81.342 39.8203 77.5281 41.5794 75.2652 40.3231C75.1241 40.2587 75.0063 40.1524 74.9278 40.0186C74.8493 39.8848 74.814 39.7301 74.8267 39.5755L74.8574 39.1476C74.8652 39.0325 74.9089 38.9228 74.9824 38.8339C75.0559 38.745 75.1555 38.6814 75.2671 38.6522C75.3787 38.6229 75.4966 38.6295 75.6043 38.6709C75.7119 38.7124 75.8039 38.7866 75.8671 38.883L75.8825 38.881Z" fill="#FFD5D5"/>
</g>
<defs>
<clipPath id="clip0_1_2146">
<rect width="64.871" height="67.1442" fill="white" transform="matrix(0.79229 0.610145 0.610145 -0.79229 0 53.7837)"/>
</clipPath>
</defs>
</svg>
