<svg width="33" height="25" viewBox="0 0 33 25" fill="none" xmlns="http://www.w3.org/2000/svg">
<path d="M22.2943 5.70107L22.2943 5.70109L28.613 11.9679L28.792 12.1453L28.6131 12.3229L22.2943 18.5938L22.2874 18.6007L22.2873 18.6006C22.1458 18.7303 22.0324 18.887 21.9536 19.061C21.8748 19.235 21.8323 19.423 21.8285 19.6136C21.8248 19.8041 21.8598 19.9936 21.9317 20.1705C22.0035 20.3475 22.1107 20.5083 22.2469 20.6435C22.3831 20.7786 22.5455 20.8852 22.7244 20.9567C22.9034 21.0283 23.0951 21.0633 23.2882 21.0597C23.4812 21.056 23.6715 21.0137 23.8475 20.9354C24.0236 20.8572 24.1817 20.7445 24.3126 20.6043L24.3192 20.5973L24.3193 20.5974L31.8317 13.1478C32.0998 12.8816 32.25 12.5212 32.25 12.1459C32.25 11.7707 32.0998 11.4103 31.8318 11.1442L22.2943 5.70107ZM22.2943 5.70107L22.2916 5.69851C22.0872 5.50162 21.9469 5.24894 21.8884 4.97295C21.8298 4.69698 21.8557 4.40994 21.9627 4.14851C22.0697 3.88707 22.2531 3.6629 22.4897 3.50498C22.7263 3.34707 23.0053 3.26265 23.2908 3.26276C23.4824 3.26324 23.6718 3.30174 23.8479 3.37595C24.0242 3.45018 24.1835 3.55862 24.3165 3.69476L24.3165 3.69478L24.3193 3.69757L31.8317 11.144L22.2943 5.70107ZM19.0084 0.962733L19.0092 0.962685L19.1516 0.961779C19.1517 0.961783 19.1518 0.961788 19.1519 0.961793C19.3678 0.971685 19.5785 1.0298 19.7683 1.13169C19.9582 1.23363 20.1223 1.37672 20.2483 1.55012C20.3743 1.72351 20.4591 1.92276 20.4965 2.13296C20.5339 2.34316 20.5229 2.55902 20.4643 2.76444L20.4634 2.76777L15.0144 22.9278L15.0142 22.9277L15.0121 22.9368C14.9693 23.1225 14.8891 23.2979 14.7763 23.4524C14.6635 23.6068 14.5204 23.7373 14.3553 23.8359L14.4835 24.0505L14.3553 23.8359C14.1903 23.9345 14.0068 23.9991 13.8158 24.0258C13.6248 24.0525 13.4304 24.0407 13.2441 23.9912C13.0578 23.9416 12.8837 23.8554 12.732 23.7377C12.5804 23.62 12.4544 23.4733 12.3614 23.3065C12.2684 23.1396 12.2104 22.956 12.1906 22.7665C12.1709 22.5771 12.1899 22.3856 12.2465 22.2036L12.2467 22.2036L12.2492 22.1945L17.694 2.03555L17.694 2.03555L17.6949 2.03212C17.7696 1.7388 17.9372 1.47656 18.1735 1.284C18.4098 1.09141 18.7024 0.978705 19.0084 0.962733ZM9.66435 3.26265L9.6647 3.26264C9.95413 3.25344 10.2394 3.33134 10.4831 3.48586C10.7267 3.64036 10.9172 3.86414 11.0298 4.12753C11.1424 4.39089 11.1719 4.68174 11.1146 4.96194C11.0574 5.24216 10.9159 5.49893 10.7085 5.69839L10.7085 5.69837L10.7058 5.70103L4.38284 11.9678L4.20375 12.1453L4.38279 12.3229L10.7056 18.5938C10.8385 18.7257 10.9439 18.8823 11.0156 19.0544C11.0874 19.2265 11.1242 19.4109 11.1241 19.597C11.1239 19.7832 11.0868 19.9675 11.0148 20.1395C10.9428 20.3115 10.8373 20.4679 10.7042 20.5997C10.5711 20.7315 10.4129 20.8361 10.2388 20.9075L10.3336 21.1388L10.2388 20.9075C10.0647 20.9788 9.87803 21.0155 9.68951 21.0153C9.50099 21.0151 9.31441 20.978 9.14044 20.9063C8.96646 20.8346 8.80857 20.7297 8.67572 20.5976L8.67556 20.5975L1.1683 13.1478C0.900209 12.8816 0.75 12.5212 0.75 12.1459C0.75 11.7706 0.900178 11.4103 1.16822 11.1441C1.16824 11.1441 1.16827 11.1441 1.1683 11.144L8.67552 3.69751L8.67554 3.69753L8.67837 3.69464C8.93747 3.42919 9.29112 3.27399 9.66435 3.26265Z" fill="#009E68" stroke="#EBFAF5" stroke-width="0.5"/>
</svg>
