<svg width="204" height="38" viewBox="0 0 204 38" fill="none" xmlns="http://www.w3.org/2000/svg">
<path d="M37.704 30C37.512 30 37.3413 29.936 37.192 29.808C37.064 29.6587 37 29.488 37 29.296C37 29.2107 37.0107 29.136 37.032 29.072L44.168 8.656C44.232 8.42133 44.3813 8.18667 44.616 7.952C44.8507 7.71733 45.1813 7.6 45.608 7.6H52.552C52.9787 7.6 53.3093 7.71733 53.544 7.952C53.7787 8.18667 53.928 8.42133 53.992 8.656L61.128 29.072C61.1493 29.136 61.16 29.2107 61.16 29.296C61.16 29.488 61.0853 29.6587 60.936 29.808C60.808 29.936 60.648 30 60.456 30H54.536C54.1307 30 53.832 29.9147 53.64 29.744C53.4693 29.552 53.352 29.3707 53.288 29.2L52.52 27.088H45.64L44.872 29.2C44.808 29.3707 44.6907 29.552 44.52 29.744C44.3493 29.9147 44.0507 30 43.624 30H37.704ZM47.272 20.848H50.888L49.064 14.896L47.272 20.848ZM72.529 30.32C70.481 30.32 68.6677 30.0213 67.089 29.424C65.5103 28.8267 64.2517 27.888 63.313 26.608C62.3957 25.328 61.8943 23.6747 61.809 21.648C61.7877 20.7733 61.777 19.8347 61.777 18.832C61.777 17.8293 61.7877 16.8693 61.809 15.952C61.8943 13.968 62.4063 12.336 63.345 11.056C64.305 9.776 65.5743 8.82667 67.153 8.208C68.753 7.58933 70.545 7.28 72.529 7.28C73.8943 7.28 75.2063 7.44 76.465 7.76C77.745 8.05866 78.897 8.53867 79.921 9.2C80.945 9.86133 81.7557 10.7147 82.353 11.76C82.9717 12.784 83.2917 14.0213 83.313 15.472C83.313 15.664 83.2383 15.8347 83.089 15.984C82.961 16.112 82.801 16.176 82.609 16.176H76.081C75.7397 16.176 75.4837 16.112 75.313 15.984C75.1637 15.8347 75.025 15.5893 74.897 15.248C74.6623 14.5653 74.3423 14.1067 73.937 13.872C73.5317 13.6373 73.0517 13.52 72.497 13.52C71.793 13.52 71.2277 13.712 70.801 14.096C70.3957 14.4587 70.1717 15.1307 70.129 16.112C70.065 17.8613 70.065 19.6533 70.129 21.488C70.1717 22.4693 70.3957 23.152 70.801 23.536C71.2277 23.8987 71.793 24.08 72.497 24.08C73.0517 24.08 73.5317 23.952 73.937 23.696C74.3637 23.44 74.6837 22.992 74.897 22.352C75.0037 21.9893 75.1423 21.744 75.313 21.616C75.4837 21.488 75.7397 21.424 76.081 21.424H82.609C82.801 21.424 82.961 21.4987 83.089 21.648C83.2383 21.776 83.313 21.936 83.313 22.128C83.2917 23.5787 82.9717 24.8267 82.353 25.872C81.7557 26.896 80.945 27.7387 79.921 28.4C78.897 29.0613 77.745 29.552 76.465 29.872C75.2063 30.1707 73.8943 30.32 72.529 30.32ZM84.454 30C84.262 30 84.0913 29.936 83.942 29.808C83.814 29.6587 83.75 29.488 83.75 29.296C83.75 29.2107 83.7607 29.136 83.782 29.072L90.918 8.656C90.982 8.42133 91.1313 8.18667 91.366 7.952C91.6007 7.71733 91.9313 7.6 92.358 7.6H99.302C99.7287 7.6 100.059 7.71733 100.294 7.952C100.529 8.18667 100.678 8.42133 100.742 8.656L107.878 29.072C107.899 29.136 107.91 29.2107 107.91 29.296C107.91 29.488 107.835 29.6587 107.686 29.808C107.558 29.936 107.398 30 107.206 30H101.286C100.881 30 100.582 29.9147 100.39 29.744C100.219 29.552 100.102 29.3707 100.038 29.2L99.27 27.088H92.39L91.622 29.2C91.558 29.3707 91.4407 29.552 91.27 29.744C91.0993 29.9147 90.8007 30 90.374 30H84.454ZM94.022 20.848H97.638L95.814 14.896L94.022 20.848ZM110.53 30C110.296 30 110.093 29.9147 109.922 29.744C109.752 29.5733 109.666 29.3707 109.666 29.136V8.464C109.666 8.22933 109.752 8.02667 109.922 7.856C110.093 7.68533 110.296 7.6 110.53 7.6H119.746C121.752 7.6 123.544 7.94133 125.122 8.624C126.701 9.28533 127.96 10.2667 128.898 11.568C129.858 12.8693 130.37 14.48 130.434 16.4C130.477 17.3173 130.498 18.128 130.498 18.832C130.498 19.5147 130.477 20.2933 130.434 21.168C130.349 23.1733 129.858 24.8373 128.962 26.16C128.066 27.4613 126.84 28.432 125.282 29.072C123.746 29.6907 121.954 30 119.906 30H110.53ZM117.666 23.76H119.746C120.216 23.76 120.632 23.6747 120.994 23.504C121.378 23.312 121.688 23.024 121.922 22.64C122.157 22.256 122.285 21.7653 122.306 21.168C122.349 20.5493 122.37 19.9947 122.37 19.504C122.392 19.0133 122.392 18.5227 122.37 18.032C122.37 17.52 122.349 16.976 122.306 16.4C122.264 15.504 121.976 14.8533 121.442 14.448C120.93 14.0427 120.312 13.84 119.586 13.84H117.666V23.76ZM134.218 30C133.983 30 133.78 29.9147 133.61 29.744C133.439 29.5733 133.354 29.3707 133.354 29.136V8.464C133.354 8.22933 133.439 8.02667 133.61 7.856C133.78 7.68533 133.983 7.6 134.218 7.6H150.634C150.868 7.6 151.071 7.68533 151.242 7.856C151.412 8.02667 151.498 8.22933 151.498 8.464V12.976C151.498 13.2107 151.412 13.4133 151.242 13.584C151.071 13.7547 150.868 13.84 150.634 13.84H141.034V15.856H149.93C150.164 15.856 150.367 15.9413 150.538 16.112C150.708 16.2827 150.794 16.4853 150.794 16.72V20.88C150.794 21.1147 150.708 21.3173 150.538 21.488C150.367 21.6587 150.164 21.744 149.93 21.744H141.034V23.76H150.89C151.124 23.76 151.327 23.8453 151.498 24.016C151.668 24.1867 151.754 24.3893 151.754 24.624V29.136C151.754 29.3707 151.668 29.5733 151.498 29.744C151.327 29.9147 151.124 30 150.89 30H134.218ZM155.562 30C155.327 30 155.124 29.9147 154.954 29.744C154.783 29.5733 154.698 29.3707 154.698 29.136V8.464C154.698 8.22933 154.783 8.02667 154.954 7.856C155.124 7.68533 155.327 7.6 155.562 7.6H160.618C161.044 7.6 161.364 7.71733 161.578 7.952C161.791 8.18667 161.93 8.35733 161.994 8.464L166.634 16.144L171.274 8.464C171.338 8.35733 171.476 8.18667 171.69 7.952C171.903 7.71733 172.223 7.6 172.65 7.6H177.706C177.94 7.6 178.143 7.68533 178.314 7.856C178.484 8.02667 178.57 8.22933 178.57 8.464V29.136C178.57 29.3707 178.484 29.5733 178.314 29.744C178.143 29.9147 177.94 30 177.706 30H171.914C171.679 30 171.476 29.9147 171.306 29.744C171.135 29.5733 171.05 29.3707 171.05 29.136V20.368L168.938 23.824C168.831 23.9947 168.682 24.176 168.49 24.368C168.319 24.5387 168.074 24.624 167.754 24.624H165.514C165.194 24.624 164.938 24.5387 164.746 24.368C164.575 24.176 164.436 23.9947 164.33 23.824L162.218 20.368V29.136C162.218 29.3707 162.132 29.5733 161.962 29.744C161.791 29.9147 161.588 30 161.354 30H155.562ZM188.568 30C188.333 30 188.13 29.9147 187.96 29.744C187.789 29.5733 187.704 29.3707 187.704 29.136V22.832L180.504 8.592C180.482 8.54933 180.461 8.50667 180.44 8.464C180.44 8.4 180.44 8.34667 180.44 8.304C180.44 8.112 180.504 7.952 180.632 7.824C180.781 7.67467 180.952 7.6 181.144 7.6H187.16C187.586 7.6 187.906 7.70667 188.12 7.92C188.333 8.13333 188.461 8.29333 188.504 8.4L191.704 14.832L194.904 8.4C194.946 8.29333 195.074 8.13333 195.288 7.92C195.501 7.70667 195.821 7.6 196.248 7.6H202.264C202.456 7.6 202.616 7.67467 202.744 7.824C202.893 7.952 202.968 8.112 202.968 8.304C202.968 8.34667 202.957 8.4 202.936 8.464C202.936 8.50667 202.925 8.54933 202.904 8.592L195.704 22.832V29.136C195.704 29.3707 195.618 29.5733 195.448 29.744C195.277 29.9147 195.074 30 194.84 30H188.568Z" fill="#080808"/>
<path d="M23.2372 14.3358C18.9304 14.0297 16.4175 15.4321 15.0864 16.6139C13.748 15.4179 11.2138 14.0226 6.86428 14.343C6.76461 14.3501 6.66493 14.3572 6.57239 14.3572L6.88862 11.8716C6.91309 11.6793 7.04159 11.5121 7.22161 11.4401C12.3995 9.36936 17.5245 9.33126 22.5966 11.4659C22.7719 11.5397 22.8964 11.7046 22.9208 11.8932L23.2372 14.3358Z" fill="#9E5CF2"/>
<path d="M28.4193 20.7717C26.9243 18.7927 24.5467 17.5114 21.8772 17.5114C19.0581 17.5114 16.5666 18.9422 15.086 21.1063C13.6053 18.9422 11.1137 17.5114 8.29478 17.5114C5.62527 17.5114 3.24757 18.7927 1.74563 20.7717C-0.58932 18.2446 -0.0625447 15.2618 0.400098 13.8381C0.492734 13.5463 0.877078 13.5106 1.03376 13.7741C1.52491 14.6069 2.7778 15.8028 5.9242 15.81C6.25163 15.81 6.60044 15.7957 6.97063 15.7673C13.2921 15.2903 15.086 18.7927 15.086 18.7927C15.086 18.7927 16.8799 15.2903 23.2013 15.7673C23.5714 15.7957 23.9202 15.81 24.2406 15.81C27.387 15.8028 28.6399 14.6069 29.1312 13.7741C29.2878 13.5106 29.6722 13.5463 29.7647 13.8381C30.2274 15.2618 30.7613 18.2517 28.4193 20.7717Z" fill="#9E5CF2"/>
<path d="M17.1715 32.4536C16.9437 33.2508 16.4312 34.1763 15.3136 34.9309C15.1783 35.0234 14.9932 35.0234 14.858 34.9309C13.7403 34.1763 13.2278 33.2508 13 32.4536C13.8115 31.8841 14.5234 31.1651 15.0858 30.3464C15.6481 31.1651 16.36 31.8841 17.1715 32.4536Z" fill="#9E5CF2"/>
<path d="M21.8773 18.9346C18.1258 18.9346 15.0862 21.9742 15.0862 25.7257C15.0862 29.4773 18.1258 32.5169 21.8773 32.5169C25.6289 32.5169 28.6685 29.4773 28.6685 25.7257C28.6685 21.9742 25.6289 18.9346 21.8773 18.9346ZM21.8773 30.2675C19.3716 30.2675 17.3356 28.2315 17.3356 25.7257C17.3356 23.22 19.3716 21.184 21.8773 21.184C24.376 21.184 26.4191 23.22 26.4191 25.7257C26.4191 28.2315 24.376 30.2675 21.8773 30.2675Z" fill="#9E5CF2"/>
<path d="M29.1029 9.52405L27.2591 10.1362V12.699C27.2591 13.0976 26.9388 13.4109 26.5472 13.4109C26.1557 13.4109 25.8353 13.0976 25.8353 12.699V10.6061L24.1697 11.1613C23.9775 10.7129 23.6073 10.3427 23.1516 10.1505C20.4679 9.0257 17.713 8.44913 14.9581 8.44913C12.2388 8.44913 9.45525 9.01153 6.69328 10.122C6.24471 10.3 5.88877 10.6345 5.67527 11.0546L1.06238 9.52406C0.59965 9.3746 0.59965 8.68402 1.06238 8.53455L14.417 4.10675C14.8513 3.96442 15.314 3.96442 15.7482 4.10675L29.1029 8.53455C29.5655 8.68401 29.5655 9.37458 29.1029 9.52405Z" fill="#9E5CF2"/>
<path d="M21.8771 22.6084C20.1544 22.6084 18.7592 24.0036 18.7592 25.7264C18.7592 27.442 20.1544 28.8444 21.8771 28.8444C23.5928 28.8444 24.9951 27.442 24.9951 25.7264C24.9951 24.0036 23.5928 22.6084 21.8771 22.6084ZM20.9668 25.731C20.5647 25.731 20.2374 25.4037 20.2374 25.0017C20.2374 24.9835 20.2381 24.9654 20.2394 24.9477C20.2671 24.5706 20.5828 24.2723 20.9668 24.2723C21.3689 24.2723 21.6961 24.5996 21.6961 25.0017C21.6961 25.3971 21.3622 25.731 20.9668 25.731Z" fill="#9E5CF2"/>
<path d="M8.29551 22.6084C6.57285 22.6084 5.17761 24.0036 5.17761 25.7264C5.17761 27.442 6.57285 28.8444 8.29551 28.8444C10.0112 28.8444 11.4136 27.442 11.4136 25.7264C11.4136 24.0036 10.0112 22.6084 8.29551 22.6084ZM7.38516 25.731C6.98309 25.731 6.65583 25.4037 6.65583 25.0017C6.65583 24.9835 6.65643 24.9654 6.65783 24.9477C6.68555 24.5706 7.00125 24.2723 7.38516 24.2723C7.78733 24.2723 8.11459 24.5996 8.11459 25.0017C8.11459 25.3971 7.78064 25.731 7.38516 25.731Z" fill="#9E5CF2"/>
<path d="M8.29568 18.9346C4.54412 18.9346 1.50452 21.9742 1.50452 25.7257C1.50452 29.4773 4.54412 32.5169 8.29568 32.5169C12.0472 32.5169 15.0868 29.4773 15.0868 25.7257C15.0868 21.9742 12.0472 18.9346 8.29568 18.9346ZM8.29568 30.2675C5.78989 30.2675 3.75396 28.2315 3.75396 25.7257C3.75396 23.22 5.7899 21.184 8.29568 21.184C10.7943 21.184 12.8374 23.22 12.8374 25.7257C12.8374 28.2315 10.7943 30.2675 8.29568 30.2675Z" fill="#9E5CF2"/>
</svg>
