<svg width="401" height="275" viewBox="0 0 401 275" fill="none" xmlns="http://www.w3.org/2000/svg">
<g clip-path="url(#clip0_1_1878)">
<path d="M-97.9919 300.561C-74.8433 286.822 -50.8947 272.618 -20.8197 272.618C9.25534 272.618 33.204 286.812 56.3627 300.561L57.1323 299.253C33.8419 285.413 9.68066 271.097 -20.8399 271.097C-51.3605 271.097 -75.461 285.413 -98.8121 299.253L-97.9919 300.561Z" fill="white" fill-opacity="0.5"/>
<path d="M212.267 300.561C235.425 286.822 259.364 272.618 289.439 272.618C319.514 272.618 343.463 286.812 366.621 300.561L367.391 299.253C344.1 285.413 319.939 271.097 289.419 271.097C258.898 271.097 234.808 285.413 211.446 299.253L212.267 300.561Z" fill="white" fill-opacity="0.5"/>
<path d="M-115.662 300.581C-109.708 297.316 -103.754 293.778 -97.9918 290.361C-74.8432 276.602 -50.9351 262.408 -20.8196 262.408C9.29591 262.408 33.204 276.602 56.4033 290.361C62.155 293.778 68.1093 297.316 74.0736 300.581L74.8027 299.242C68.8687 295.988 62.9246 292.46 57.1729 289.053C33.8825 275.213 9.72124 260.897 -20.7993 260.897C-51.3199 260.897 -75.4204 275.213 -98.7715 289.053C-104.513 292.47 -110.457 295.988 -116.391 299.242L-115.662 300.581Z" fill="white" fill-opacity="0.5"/>
<path d="M194.596 300.581C200.551 297.316 206.505 293.778 212.267 290.361C235.415 276.602 259.364 262.408 289.439 262.408C319.514 262.408 343.463 276.602 366.621 290.351C372.373 293.768 378.327 297.306 384.292 300.571L385.021 299.232C379.087 295.978 373.143 292.449 367.391 289.043C344.101 275.203 319.939 260.887 289.419 260.887C258.898 260.887 234.798 275.203 211.446 289.043C205.705 292.449 199.761 295.978 193.827 299.232L194.596 300.581Z" fill="white" fill-opacity="0.5"/>
<path d="M-137.15 300.621C-123.399 295.238 -110.488 287.573 -98.0021 280.161C-74.8433 266.463 -50.9352 252.269 -20.8197 252.269C9.29582 252.269 33.2039 266.463 56.4032 280.161C68.8889 287.573 81.81 295.238 95.5615 300.621L96.1184 299.202C82.4378 293.838 69.5673 286.234 57.1323 278.853C33.8419 265.003 9.68063 250.698 -20.8399 250.698C-51.3605 250.698 -75.461 265.014 -98.8121 278.853C-111.247 286.234 -124.128 293.869 -137.748 299.202L-137.15 300.621Z" fill="white" fill-opacity="0.5"/>
<path d="M173.098 300.621C186.86 295.238 199.771 287.573 212.267 280.161C235.415 266.464 259.364 252.269 289.439 252.269C319.514 252.269 343.463 266.463 366.621 280.212C379.026 287.522 391.856 295.136 405.516 300.51L406.063 299.101C392.524 293.768 379.735 286.184 367.391 278.823C344.101 264.973 319.939 250.667 289.419 250.667C258.898 250.667 234.798 264.983 211.446 278.823C199.011 286.204 186.131 293.839 172.511 299.172L173.098 300.621Z" fill="white" fill-opacity="0.5"/>
<path d="M134.315 298.117C164.815 298.117 188.936 283.801 212.287 269.961C235.436 256.223 259.384 242.008 289.459 242.008C319.534 242.008 343.483 256.203 366.642 269.961C379.026 277.322 391.856 284.937 405.516 290.31L406.063 288.891C392.524 283.568 379.735 275.984 367.391 268.613C344.101 254.763 319.939 240.447 289.419 240.447C258.898 240.447 234.798 254.763 211.446 268.613C188.298 282.351 164.359 296.556 134.274 296.556C104.189 296.556 80.2506 282.361 57.0919 268.613C33.8015 254.763 9.64017 240.447 -20.8804 240.447V241.968C9.20474 241.968 33.1432 256.162 56.302 269.921C79.6937 283.801 103.814 298.117 134.315 298.117Z" fill="white" fill-opacity="0.5"/>
<path d="M134.315 287.917C164.815 287.917 188.936 273.601 212.287 259.762C235.436 246.013 259.384 231.809 289.459 231.809C319.534 231.809 343.483 246.003 366.642 259.762C379.026 267.123 391.856 274.737 405.516 280.11L406.063 278.691C392.524 273.368 379.735 265.784 367.391 258.413C344.101 244.563 319.939 230.247 289.419 230.247C258.898 230.247 234.798 244.563 211.446 258.413C188.298 272.151 164.359 286.356 134.274 286.356C104.189 286.356 80.2506 272.162 57.0919 258.413C33.8015 244.563 9.64017 230.247 -20.8804 230.247V231.768C9.20474 231.768 33.1432 245.963 56.302 259.721C79.6937 273.561 103.814 287.917 134.315 287.917Z" fill="white" fill-opacity="0.5"/>
<path d="M134.315 277.718C164.815 277.718 188.936 263.401 212.287 249.562C235.436 235.814 259.384 221.609 289.459 221.609C319.534 221.609 343.483 235.803 366.642 249.552C379.026 256.923 391.856 264.537 405.516 269.911L406.063 268.491C392.524 263.158 379.735 255.584 367.391 248.213C344.101 234.374 319.939 220.058 289.419 220.058C258.898 220.058 234.798 234.374 211.446 248.213C188.298 261.962 164.359 276.166 134.274 276.166C104.189 276.166 80.2506 261.972 57.0919 248.213C33.8015 234.374 9.64017 220.058 -20.8804 220.058V221.579C9.20474 221.579 33.1432 235.773 56.302 249.531C79.6937 263.422 103.814 277.718 134.315 277.718Z" fill="white" fill-opacity="0.5"/>
<path d="M134.315 267.477C164.815 267.477 188.936 253.161 212.287 239.312C235.436 225.573 259.384 211.369 289.459 211.369C319.534 211.369 343.483 225.563 366.642 239.312C379.026 246.713 391.856 254.297 405.516 259.701L406.063 258.292C392.524 252.958 379.735 245.375 367.391 238.014C344.101 224.174 319.939 209.858 289.419 209.858C258.898 209.858 234.798 224.174 211.446 238.014C188.298 251.752 164.359 265.967 134.274 265.967C104.189 265.967 80.2506 251.772 57.0919 238.014C33.8015 224.174 9.64017 209.858 -20.8804 209.858V211.379C9.20474 211.379 33.1432 225.573 56.302 239.322C79.6937 253.202 103.814 267.477 134.315 267.477Z" fill="white" fill-opacity="0.5"/>
<path d="M134.315 257.338C164.815 257.338 188.936 243.022 212.287 229.173C235.436 215.434 259.384 201.23 289.459 201.23C319.534 201.23 343.483 215.424 366.642 229.173C379.026 236.513 391.856 244.158 405.516 249.501L406.063 248.092C392.524 242.759 379.735 235.175 367.391 227.814C344.101 213.974 319.939 199.658 289.419 199.658C258.898 199.658 234.798 213.974 211.446 227.814C188.298 241.552 164.359 255.767 134.274 255.767C104.189 255.767 80.2506 241.572 57.0919 227.814C33.8015 213.974 9.64017 199.658 -20.8804 199.658V201.179C9.20474 201.179 33.1432 215.374 56.302 229.122C79.6937 243.002 103.814 257.338 134.315 257.338Z" fill="white" fill-opacity="0.5"/>
<path d="M134.315 247.108C164.815 247.108 188.936 232.792 212.287 218.953C235.436 205.214 259.384 191 289.459 191C319.534 191 343.483 205.194 366.642 218.953C379.026 226.313 391.856 233.928 405.516 239.301L406.063 237.892C392.524 232.559 379.735 224.975 367.391 217.614C344.101 203.765 319.939 189.448 289.419 189.448C258.898 189.448 234.798 203.765 211.446 217.614C188.298 231.353 164.359 245.557 134.274 245.557C104.189 245.557 80.2506 231.363 57.0919 217.614C33.8015 203.765 9.64017 189.448 -20.8804 189.448V190.969C9.20474 190.969 33.1432 205.164 56.302 218.922C79.6937 232.792 103.814 247.108 134.315 247.108Z" fill="white" fill-opacity="0.5"/>
<path d="M134.315 236.909C164.815 236.909 188.936 222.593 212.287 208.753C235.436 195.015 259.384 180.8 289.459 180.8C319.534 180.8 343.483 194.994 366.642 208.753C379.026 216.114 391.856 223.728 405.516 229.102L406.063 227.682C392.524 222.359 379.735 214.775 367.391 207.404C344.101 193.555 319.939 179.239 289.419 179.239C258.898 179.239 234.798 193.555 211.446 207.404C188.298 221.143 164.359 235.347 134.274 235.347C104.189 235.347 80.2506 221.153 57.0919 207.404C33.8015 193.555 9.64017 179.239 -20.8804 179.239V180.759C9.20474 180.759 33.1432 194.954 56.302 208.712C79.6937 222.593 103.814 236.909 134.315 236.909Z" fill="white" fill-opacity="0.5"/>
<path d="M134.315 226.709C164.815 226.709 188.936 212.393 212.287 198.553C235.436 184.805 259.384 170.6 289.459 170.6C319.534 170.6 343.483 184.795 366.642 198.553C379.026 205.914 391.856 213.528 405.516 218.902L406.063 217.482C392.524 212.149 379.735 204.576 367.391 197.205C344.101 183.365 319.939 169.049 289.419 169.049C258.898 169.049 234.798 183.365 211.446 197.205C188.298 210.953 164.359 225.158 134.274 225.158C104.189 225.158 80.2506 210.963 57.0919 197.205C33.8015 183.365 9.64017 169.049 -20.8804 169.049V170.57C9.20474 170.57 33.1432 184.764 56.302 198.523C79.6937 212.393 103.814 226.709 134.315 226.709Z" fill="white" fill-opacity="0.5"/>
<path d="M134.315 216.509C164.815 216.509 188.936 202.193 212.287 188.343C235.436 174.605 259.384 160.401 289.459 160.401C319.534 160.401 343.463 174.605 366.621 188.394C379.026 195.714 391.856 203.329 405.516 208.672L406.063 207.252C392.524 201.919 379.735 194.335 367.391 186.975C344.101 173.135 319.939 158.819 289.419 158.819C258.898 158.819 234.798 173.135 211.446 186.975C188.298 200.723 164.359 214.928 134.274 214.928C104.189 214.928 80.2506 200.733 57.0919 186.975C33.8015 173.135 9.64017 158.819 -20.8804 158.819V160.34C9.20474 160.34 33.1432 174.534 56.302 188.283C79.6937 202.193 103.814 216.509 134.315 216.509Z" fill="white" fill-opacity="0.5"/>
<path d="M134.315 206.309C164.815 206.309 188.936 191.993 212.287 178.144C235.436 164.405 259.384 150.201 289.459 150.201C319.534 150.201 343.483 164.395 366.642 178.144C379.026 185.504 391.856 193.119 405.516 198.533L406.063 197.124C392.524 191.791 379.735 184.207 367.391 176.846C344.101 163.006 319.939 148.69 289.419 148.69C258.898 148.69 234.798 163.006 211.446 176.846C188.298 190.584 164.359 204.799 134.274 204.799C104.189 204.799 80.2506 190.604 57.0919 176.846C33.8015 163.006 9.64017 148.69 -20.8804 148.69V150.211C9.20474 150.211 33.1432 164.405 56.302 178.154C79.6937 191.993 103.814 206.309 134.315 206.309Z" fill="white" fill-opacity="0.5"/>
<path d="M134.315 196.11C164.815 196.11 188.936 181.794 212.287 167.944C235.436 154.206 259.384 140.001 289.459 140.001C319.534 140.001 343.483 154.196 366.642 167.944C379.026 175.305 391.856 182.919 405.516 188.293L406.063 186.883C392.524 181.55 379.735 173.966 367.391 166.606C344.101 152.756 319.939 138.45 289.419 138.45C258.898 138.45 234.798 152.766 211.446 166.606C188.298 180.344 164.359 194.558 134.274 194.558C104.189 194.558 80.2506 180.364 57.0919 166.606C33.8015 152.766 9.64017 138.45 -20.8804 138.45V139.971C9.20474 139.971 33.1432 154.165 56.302 167.913C79.6937 181.794 103.814 196.11 134.315 196.11Z" fill="white" fill-opacity="0.5"/>
<path d="M134.315 185.9C164.815 185.9 188.936 171.584 212.287 157.744C235.436 144.006 259.384 129.791 289.459 129.791C319.534 129.791 343.483 143.986 366.642 157.744C379.026 165.075 391.856 172.719 405.516 178.093L406.063 176.673C392.524 171.351 379.735 163.767 367.391 156.396C344.101 142.546 319.939 128.23 289.419 128.23C258.898 128.23 234.798 142.546 211.446 156.396C188.338 170.144 164.4 184.338 134.315 184.338C104.23 184.338 80.2911 170.144 57.1324 156.396C33.8419 142.546 9.68069 128.23 -20.8399 128.23V129.751C9.24527 129.751 33.1837 143.945 56.3425 157.704C79.6937 171.584 103.814 185.9 134.315 185.9Z" fill="white" fill-opacity="0.5"/>
<path d="M134.315 175.7C164.815 175.7 188.936 161.384 212.287 147.544C235.436 133.806 259.384 119.592 289.459 119.592C319.534 119.592 343.483 133.786 366.642 147.544C379.026 154.936 391.856 162.52 405.516 167.893L406.063 166.474C392.524 161.151 379.735 153.567 367.391 146.196C344.101 132.346 319.939 118.03 289.419 118.03C258.898 118.03 234.798 132.346 211.446 146.196C188.338 160.005 164.4 174.2 134.315 174.2C104.23 174.2 80.2911 160.005 57.1324 146.257C33.8419 132.407 9.68069 118.091 -20.8399 118.091V119.612C9.24527 119.612 33.1837 133.806 56.3425 147.565C79.6937 161.384 103.814 175.7 134.315 175.7Z" fill="white" fill-opacity="0.5"/>
<path d="M134.315 165.5C164.815 165.5 188.936 151.184 212.287 137.335C235.436 123.596 259.384 109.392 289.459 109.392C319.534 109.392 343.483 123.586 366.642 137.335C379.026 144.706 391.856 152.32 405.516 157.693L406.063 156.274C392.524 150.941 379.735 143.367 367.391 135.996C344.101 122.157 319.939 107.841 289.419 107.841C258.898 107.841 234.798 122.157 211.446 135.996C188.298 149.745 164.359 163.949 134.274 163.949C104.189 163.949 80.2506 149.755 57.0919 135.996C33.8015 122.157 9.64017 107.841 -20.8804 107.841V109.361C9.20474 109.361 33.1432 123.556 56.302 137.304C79.6937 151.184 103.814 165.5 134.315 165.5Z" fill="white" fill-opacity="0.5"/>
<path d="M134.315 155.301C164.815 155.301 188.936 140.985 212.287 127.135C235.415 113.366 259.364 99.1718 289.439 99.1718C319.514 99.1718 343.463 113.366 366.621 127.115C379.026 134.506 391.856 142.11 405.516 147.494L406.063 146.074C392.524 140.741 379.735 133.157 367.391 125.796C344.101 111.957 319.939 97.6408 289.419 97.6408C258.898 97.6408 234.798 111.957 211.446 125.796C188.298 139.535 164.359 153.749 134.274 153.749C104.189 153.749 80.2506 139.555 57.0919 125.796C33.8015 111.957 9.64017 97.6408 -20.8804 97.6408V99.1718C9.20474 99.1718 33.1432 113.366 56.302 127.115C79.6937 140.985 103.814 155.301 134.315 155.301Z" fill="white" fill-opacity="0.5"/>
<path d="M134.315 145.101C164.815 145.101 188.936 130.785 212.287 116.935C235.415 103.227 259.364 89.0329 289.439 89.0329C319.514 89.0329 343.463 103.227 366.621 116.976C379.026 124.296 391.856 131.91 405.516 137.284L406.063 135.875C392.524 130.542 379.735 122.958 367.391 115.597C344.101 101.757 319.939 87.4411 289.419 87.4411C258.898 87.4411 234.798 101.757 211.446 115.597C188.298 129.335 164.359 143.55 134.274 143.55C104.189 143.55 80.2506 129.355 57.0919 115.597C33.8015 101.757 9.64017 87.4411 -20.8804 87.4411V89.0329C9.20474 89.0329 33.1432 103.227 56.302 116.976C79.6937 130.785 103.814 145.101 134.315 145.101Z" fill="white" fill-opacity="0.5"/>
<path d="M134.315 134.891C164.815 134.891 188.936 120.585 212.287 106.735C235.436 92.9972 259.384 78.7825 289.459 78.7825C319.534 78.7825 343.483 92.977 366.642 106.735C379.026 114.096 391.856 121.711 405.516 127.084L406.063 125.675C392.524 120.342 379.735 112.758 367.391 105.397C344.101 91.5474 319.939 77.2313 289.419 77.2313C258.898 77.2313 234.798 91.5474 211.446 105.397C188.298 119.135 164.359 133.34 134.274 133.34C104.189 133.34 80.2506 119.145 57.0919 105.397C33.8015 91.5474 9.64017 77.2313 -20.8804 77.2313V78.7521C9.20474 78.7521 33.1432 92.9465 56.302 106.705C79.6937 120.585 103.814 134.891 134.315 134.891Z" fill="white" fill-opacity="0.5"/>
<path d="M134.315 124.691C164.815 124.691 188.936 110.375 212.287 96.5357C235.436 82.7975 259.384 68.5828 289.459 68.5828C319.534 68.5828 343.483 82.7772 366.642 96.5357C379.026 103.897 391.856 111.511 405.516 116.884L406.063 115.465C392.524 110.142 379.735 102.558 367.391 95.1872C344.101 81.3375 319.939 67.0214 289.419 67.0214C258.898 67.0214 234.798 81.3375 211.446 95.1872C188.298 108.925 164.359 123.13 134.274 123.13C104.189 123.13 80.2506 108.936 57.0919 95.1872C33.8015 81.3375 9.64017 67.0214 -20.8804 67.0214V68.5422C9.20474 68.5422 33.1432 82.7366 56.302 96.4951C79.6937 110.375 103.814 124.691 134.315 124.691Z" fill="white" fill-opacity="0.5"/>
<path d="M134.315 114.492C164.815 114.492 188.936 100.176 212.287 86.336C235.436 72.5876 259.384 58.383 289.459 58.383C319.534 58.383 343.483 72.5775 366.642 86.336C379.026 93.6968 391.856 101.311 405.516 106.685L406.063 105.255C392.524 99.9322 379.735 92.3483 367.391 84.9773C344.101 71.1378 319.939 56.8217 289.419 56.8217C258.898 56.8217 234.798 71.1378 211.446 84.9875C188.298 98.7257 164.359 112.93 134.274 112.93C104.189 112.93 80.2506 98.7358 57.0919 84.9875C33.8015 71.1378 9.64017 56.8217 -20.8804 56.8217V58.3425C9.20474 58.3425 33.1432 72.5369 56.302 86.2954C79.6937 100.186 103.814 114.492 134.315 114.492Z" fill="white" fill-opacity="0.5"/>
<path d="M134.315 104.292C164.815 104.292 188.936 89.9758 212.287 76.1261C235.436 62.3879 259.384 48.1834 289.459 48.1834C319.534 48.1834 343.483 62.3778 366.642 76.1261C379.026 83.4971 391.856 91.1114 405.516 96.485L406.063 95.1163C392.524 89.7832 379.735 82.2095 367.391 74.8385C344.101 60.9989 319.939 46.6828 289.419 46.6828C258.898 46.6828 234.798 60.9989 211.446 74.8385C188.298 88.5868 164.359 102.791 134.274 102.791C104.189 102.791 80.2506 88.597 57.0919 74.8385C33.8015 60.9989 9.64017 46.6828 -20.8804 46.6828V48.2036C9.20474 48.2036 33.1432 62.3981 56.302 76.1464C79.6937 89.9759 103.814 104.292 134.315 104.292Z" fill="white" fill-opacity="0.5"/>
<path d="M134.315 94.1024C164.815 94.1024 188.936 79.7863 212.287 65.9365C235.436 52.1983 259.384 37.9938 289.459 37.9938C319.534 37.9938 343.483 52.1882 366.642 65.9365C379.026 73.2872 391.856 80.9218 405.516 86.2752L406.063 84.8658C392.524 79.5328 379.735 71.9489 367.391 64.5881C344.101 50.7485 319.939 36.4324 289.419 36.4324C258.898 36.4324 234.798 50.7485 211.446 64.5881C188.298 78.3263 164.359 92.541 134.274 92.541C104.189 92.541 80.2506 78.3465 57.0919 64.5881C33.8015 50.7485 9.64017 36.4324 -20.8804 36.4324V37.9532C9.20474 37.9532 33.1432 52.1477 56.302 65.896C79.6937 79.7761 103.814 94.1024 134.315 94.1024Z" fill="white" fill-opacity="0.5"/>
<path d="M134.315 83.8925C164.815 83.8925 188.936 69.5764 212.287 55.7267C235.436 41.9885 259.384 27.7839 289.459 27.7839C319.534 27.7839 343.483 41.9784 366.642 55.7267C379.026 63.0875 391.856 70.7018 405.516 76.0754L406.063 74.6661C392.524 69.3331 379.735 61.7492 367.391 54.3884C344.101 40.5488 319.939 26.2327 289.419 26.2327C258.898 26.2327 234.798 40.5488 211.446 54.3884C188.298 68.1266 164.359 82.3413 134.274 82.3413C104.189 82.3413 80.2506 68.1468 57.0919 54.3884C33.8015 40.5488 9.64017 26.2327 -20.8804 26.2327V27.7535C9.20474 27.7535 33.1432 41.9479 56.302 55.6963C79.6937 69.5764 103.814 83.8925 134.315 83.8925Z" fill="white" fill-opacity="0.5"/>
<path d="M134.315 73.6826C164.815 73.6826 188.936 59.3665 212.287 45.5269C235.436 31.7887 259.384 17.574 289.459 17.574C319.534 17.574 343.483 31.7685 366.642 45.5269C379.026 52.8878 391.856 60.5021 405.516 65.8757L406.063 64.4664C392.524 59.1333 379.735 51.5494 367.391 44.1886C344.101 30.3389 319.939 16.0228 289.419 16.0228C258.898 16.0228 234.798 30.3389 211.446 44.1886C188.298 57.9268 164.359 72.1314 134.274 72.1314C104.189 72.1314 80.2506 57.9369 57.0919 44.1886C33.8015 30.3389 9.64017 16.0228 -20.8804 16.0228V17.5436C9.20474 17.5436 33.1432 31.738 56.302 45.4965C79.6937 59.3665 103.814 73.6826 134.315 73.6826Z" fill="white" fill-opacity="0.5"/>
<path d="M134.315 63.4829C164.815 63.4829 188.936 49.1668 212.287 35.3272C235.436 21.589 259.384 7.37432 289.459 7.37432C319.534 7.37432 343.463 21.589 366.621 35.2968C379.026 42.6881 391.856 50.3024 405.516 55.676L406.063 54.2565C392.524 48.9336 379.735 41.3497 367.391 33.9788C344.101 20.129 319.939 5.81293 289.419 5.81293C258.898 5.81293 234.798 20.129 211.446 33.9788C188.298 47.717 164.359 61.9215 134.274 61.9215C104.189 61.9215 80.2506 47.7271 57.0919 33.9788C33.8015 20.129 9.64017 5.81293 -20.8804 5.81293V7.33376C9.20474 7.33376 33.1432 21.5282 56.302 35.2867C79.6937 49.1668 103.814 63.4829 134.315 63.4829Z" fill="white" fill-opacity="0.5"/>
<path d="M134.315 53.2832C164.815 53.2832 188.936 38.9671 212.287 25.1275C235.415 11.3792 259.364 -2.82542 289.439 -2.82542C319.514 -2.82542 343.463 11.3792 366.621 25.1579C379.026 32.4883 391.856 40.1026 405.516 45.4357L406.063 44.0162C392.524 38.6933 379.735 31.1094 367.391 23.7385C344.06 9.94958 319.939 -4.34625 289.439 -4.34625C258.939 -4.34625 234.818 9.96986 211.467 23.8196C188.318 37.5578 164.38 51.7624 134.294 51.7624C104.209 51.7624 80.2709 37.5679 57.1121 23.8196C33.8217 9.96986 9.66046 -4.34625 -20.8601 -4.34625V-2.82542C9.22501 -2.82542 33.1635 11.369 56.3223 25.1275C79.6937 38.9671 103.814 53.2832 134.315 53.2832Z" fill="white" fill-opacity="0.5"/>
<path d="M134.315 43.0835C164.815 43.0835 188.936 28.7674 212.287 14.9177C235.415 1.17946 259.364 -13.0251 289.439 -13.0251C319.514 -13.0251 343.463 1.16933 366.621 14.9177C379.026 22.2886 391.856 29.9029 405.516 35.2968L406.063 33.8774C392.524 28.5443 379.735 20.9706 367.391 13.5996C344.101 -0.239979 319.939 -14.5561 289.419 -14.5561C258.898 -14.5561 234.798 -0.239979 211.446 13.5996C188.298 27.3479 164.359 41.5525 134.274 41.5525C104.189 41.5525 80.2506 27.3581 57.0919 13.5996C33.8015 -0.239979 9.64017 -14.5561 -20.8804 -14.5561V-13.0353C9.20474 -13.0353 33.1432 1.15919 56.302 14.9075C79.6937 28.7674 103.814 43.0835 134.315 43.0835Z" fill="white" fill-opacity="0.5"/>
<path d="M134.315 32.8837C164.815 32.8837 188.936 18.5676 212.287 4.7179C235.415 -9.02029 259.364 -23.2249 289.439 -23.2249C319.514 -23.2249 343.463 -9.02029 366.621 4.7179C379.026 12.0787 391.856 19.693 405.516 25.0667L406.063 23.6573C392.524 18.3243 379.735 10.7404 367.391 3.37957C344.101 -10.46 319.939 -24.7761 289.419 -24.7761C258.898 -24.7761 234.798 -10.46 211.446 3.37957C188.298 17.1178 164.359 31.3325 134.274 31.3325C104.189 31.3325 80.2506 17.138 57.0919 3.37957C33.8015 -10.46 9.64017 -24.7761 -20.8804 -24.7761V-23.2553C9.20474 -23.2553 33.1432 -9.06085 56.302 4.68749C79.6937 18.5676 103.814 32.8837 134.315 32.8837Z" fill="white" fill-opacity="0.5"/>
<path d="M134.315 22.684C164.815 22.684 188.936 8.35778 212.287 -5.4818C224.702 -12.8629 237.562 -20.4671 251.202 -25.8306L250.655 -27.25C236.894 -21.8662 223.983 -14.2012 211.497 -6.78972C188.338 6.90792 164.4 21.1632 134.315 21.1632C104.23 21.1632 80.2911 6.96875 57.1323 -6.78972C44.6466 -14.2012 31.7357 -21.8662 17.9234 -27.25L17.3665 -25.8306C31.0876 -20.4671 43.9277 -12.8629 56.4032 -5.4818C79.6936 8.36792 103.814 22.684 134.315 22.684Z" fill="white" fill-opacity="0.5"/>
<path d="M405.516 14.8669L406.063 13.4576C392.524 8.12459 379.735 0.540697 367.391 -6.82014C355.047 -14.181 341.964 -21.8662 328.233 -27.25L327.676 -25.8306C341.326 -20.4671 354.186 -12.8629 366.621 -5.4818C379.056 1.89931 391.856 9.49334 405.516 14.8669Z" fill="white" fill-opacity="0.5"/>
<path d="M134.315 12.4741C164.815 12.4741 188.936 -1.84198 212.287 -15.6816C218.029 -19.0984 223.973 -22.6166 229.917 -25.8204L229.188 -27.1588C223.223 -23.8941 217.269 -20.3556 211.507 -16.9388C188.338 -3.231 164.4 10.9634 134.315 10.9634C104.23 10.9634 80.2911 -3.231 57.1323 -16.9895C51.3806 -20.4063 45.4263 -23.9448 39.462 -27.2095L38.7329 -25.8711C44.677 -22.6166 50.611 -19.0882 56.3627 -15.7323C79.6936 -1.84197 103.814 12.4741 134.315 12.4741Z" fill="white" fill-opacity="0.5"/>
<path d="M405.516 4.66722L406.063 3.24778C392.524 -2.07514 379.735 -9.65903 367.401 -17.03C361.639 -20.4468 355.685 -23.9853 349.721 -27.25L348.991 -25.9117C354.936 -22.6571 360.88 -19.1287 366.621 -15.7728C379.026 -8.30042 391.856 -0.70639 405.516 4.66722Z" fill="white" fill-opacity="0.5"/>
<path d="M134.315 2.27446C164.815 2.27446 188.936 -12.0416 212.287 -25.8812L211.507 -27.1891C188.359 -13.451 164.42 0.753628 134.335 0.753628C104.25 0.753628 80.3114 -13.4408 57.1628 -27.1891L56.3831 -25.8812C79.6937 -12.0416 103.814 2.27446 134.315 2.27446Z" fill="white" fill-opacity="0.5"/>
</g>
<defs>
<clipPath id="clip0_1_1878">
<rect width="401" height="292" fill="white" transform="matrix(-1 0 0 1 401 -9)"/>
</clipPath>
</defs>
</svg>
