<svg width="86" height="59" viewBox="0 0 86 59" fill="none" xmlns="http://www.w3.org/2000/svg">
<g clip-path="url(#clip0_1_2124)">
<path d="M10.9553 2.51032C18.6876 2.30852 26.9332 3.84612 32.7751 9.27626C37.5418 13.7061 40.12 20.4644 38.4 26.835L37.1401 25.732C41.3324 24.1624 45.8825 23.7855 50.2829 24.6434C54.6834 25.5013 58.7612 27.5603 62.0616 30.5906C65.1088 33.4862 67.3627 37.1101 68.6082 41.1165C70.1725 46.0362 69.515 51.0512 69.3641 56.1062C69.3336 57.3433 67.4071 57.2307 67.4438 55.9956C67.5701 51.5254 68.195 47.0584 67.0575 42.6632C66.0524 38.853 64.0657 35.3688 61.2947 32.5563C55.2741 26.4529 45.9616 24.5653 37.9364 27.382C37.776 27.4546 37.5978 27.4793 37.4234 27.4532C37.249 27.4271 37.0857 27.3514 36.9533 27.235C36.8208 27.1187 36.7248 26.9668 36.6768 26.7975C36.6288 26.6283 36.6308 26.449 36.6827 26.2811C38.333 20.3235 35.5847 13.9717 31.0766 9.97601C25.6245 5.13978 17.9739 3.66484 10.898 3.56132C10.2169 3.55165 10.2885 2.53953 10.9512 2.52258L10.9553 2.51032Z" fill="#C6E9DD"/>
<path d="M66.935 55.5117C63.7258 53.116 60.9453 49.9095 58.1259 47.0648C57.3379 46.2695 58.5009 45.0022 59.4058 45.6115C63.0777 48.1078 66.3103 51.1929 68.972 54.7411L67.6323 54.6543L72.026 50.3572C73.3367 49.0778 74.6309 47.3976 76.2535 46.5361C76.4141 46.4639 76.5939 46.445 76.7664 46.4823C76.9389 46.5195 77.095 46.6109 77.2117 46.7431C77.3284 46.8752 77.3995 47.041 77.4147 47.2163C77.4299 47.3915 77.3883 47.5668 77.296 47.7164C76.3936 49.3095 74.6377 50.5695 73.3229 51.8406L68.9046 56.1091C68.7139 56.2704 68.4677 56.3514 68.2178 56.3352C67.9679 56.3191 67.7339 56.2069 67.5649 56.0223C65.0069 52.5999 61.8927 49.6276 58.3516 47.2289L59.6315 45.7756C62.3381 48.6303 65.416 51.4797 67.6693 54.7076C67.9874 55.1684 67.4951 55.9035 66.9637 55.5077L66.935 55.5117Z" fill="#C6E9DD"/>
<path d="M58.5954 45.9473C61.8547 45.8604 65.1146 45.7646 68.3753 45.66L73.0979 45.4945C74.5976 45.4303 76.2204 45.121 77.6791 45.5067C77.8128 45.555 77.9296 45.6409 78.0153 45.754C78.101 45.8671 78.1519 46.0025 78.162 46.1438C78.172 46.285 78.1406 46.4261 78.0717 46.5497C78.0028 46.6733 77.8993 46.7743 77.7737 46.8402C76.467 47.3302 75.0247 47.2023 73.6296 47.2401C71.9597 47.2814 70.2795 47.3125 68.6013 47.2965C65.2449 47.2646 61.8953 47.1032 58.5525 46.8122C58.44 46.8028 58.3356 46.7501 58.2612 46.6653C58.1868 46.5806 58.1484 46.4704 58.154 46.3581C58.1595 46.2457 58.2087 46.1401 58.2911 46.0634C58.3735 45.9868 58.4826 45.9451 58.5954 45.9473Z" fill="#C6E9DD"/>
</g>
<defs>
<clipPath id="clip0_1_2124">
<rect width="78" height="36" fill="white" transform="matrix(0.948366 0.317179 0.317179 -0.948366 0 34.1411)"/>
</clipPath>
</defs>
</svg>
