<svg width="33" height="21" viewBox="0 0 33 21" fill="none" xmlns="http://www.w3.org/2000/svg">
<path d="M23.5698 4.51173C23.5698 2.23768 21.7376 0.394775 19.4767 0.394775H4.59302C2.33219 0.394775 0.5 2.23768 0.5 4.51173V16.4883C0.5 18.7624 2.33219 20.6053 4.59302 20.6053H19.4767C21.7376 20.6053 23.5698 18.7624 23.5698 16.4883V4.51173ZM21.3372 4.51173V16.4883C21.3372 17.5213 20.5037 18.3597 19.4767 18.3597H4.59302C3.56605 18.3597 2.73256 17.5213 2.73256 16.4883V4.51173C2.73256 3.47875 3.56605 2.64039 4.59302 2.64039H19.4767C20.5037 2.64039 21.3372 3.47875 21.3372 4.51173Z" fill="#FF3C31"/>
<path d="M32.4999 16.8761V4.12405C32.4999 3.18538 32.0013 2.32007 31.1932 1.85298C30.3835 1.3844 29.3878 1.38889 28.5826 1.86047C25.9377 3.41294 21.8908 5.7873 21.8908 5.7873C21.5485 5.98941 21.3372 6.35769 21.3372 6.7574V14.2428C21.3372 14.6425 21.5485 15.0108 21.8908 15.2129C21.8908 15.2129 25.9377 17.5873 28.5826 19.1397C29.3878 19.6113 30.3835 19.6158 31.1932 19.1472C32.0013 18.6801 32.4999 17.8148 32.4999 16.8761ZM30.2674 4.12405V16.8761C30.2674 17.0109 30.1959 17.1336 30.0813 17.201C29.9653 17.2669 29.8224 17.2669 29.7078 17.1995L23.5697 13.5975V7.40264L29.7078 3.80068C29.8224 3.73331 29.9653 3.73331 30.0813 3.79918C30.1959 3.86655 30.2674 3.98931 30.2674 4.12405Z" fill="#FF3C31"/>
<path d="M16.5001 4.88599H13.5233C12.9071 4.88599 12.407 5.389 12.407 6.00879C12.407 6.62858 12.9071 7.1316 13.5233 7.1316H16.5001C17.1163 7.1316 17.6163 6.62858 17.6163 6.00879C17.6163 5.389 17.1163 4.88599 16.5001 4.88599Z" fill="#FF3C31"/>
</svg>
